<svg width="225" height="225" version="1.1" xmlns="http://www.w3.org/2000/svg" desc="Created with imagetracer.js version 1.2.6" ><path fill="rgb(252,253,252)" stroke="rgb(252,253,252)" stroke-width="1" opacity="1" d="M 89.5 50 L 91.5 51 L 93 50.5 Q 93.8 53.1 90.5 52 L 89.5 50 Z " /><path fill="rgb(252,253,252)" stroke="rgb(252,253,252)" stroke-width="1" opacity="1" d="M 40.5 51 Q 44.3 50 43 53 L 40.5 51 Z " /><path fill="rgb(252,253,252)" stroke="rgb(252,253,252)" stroke-width="1" opacity="1" d="M 53 52 Q 56.8 50.5 56 53.5 L 53 55 L 53 52 Z " /><path fill="rgb(252,253,252)" stroke="rgb(252,253,252)" stroke-width="1" opacity="1" d="M 79.5 52 L 81.5 55 L 77 56 L 73.5 61 Q 69.3 62.1 71 58 L 74.5 59 L 77 54.5 L 76.5 53 L 79.5 52 Z " /><path fill="rgb(252,253,252)" stroke="rgb(252,253,252)" stroke-width="1" opacity="1" d="M 94.5 52 L 96.5 53 L 99.5 52 L 101 52.5 Q 100.3 54.8 96.5 54 L 94.5 52 Z " /><path fill="rgb(252,253,252)" stroke="rgb(252,253,252)" stroke-width="1" opacity="1" d="M 137 53 L 140 54.5 L 136 55.5 L 137 53 Z " /><path fill="rgb(252,253,252)" stroke="rgb(252,253,252)" stroke-width="1" opacity="1" d="M 163.5 53 L 165 55.5 L 163.5 55 L 159 58.5 L 163.5 53 Z " /><path fill="rgb(252,253,252)" stroke="rgb(252,253,252)" stroke-width="1" opacity="1" d="M 35.5 54 L 34.5 56 L 32 55.5 L 35.5 54 Z " /><path fill="rgb(252,253,252)" stroke="rgb(252,253,252)" stroke-width="1" opacity="1" d="M 147.5 54 L 152 56 L 151.5 58 L 148 56.5 L 147.5 54 Z " /><path fill="rgb(252,253,252)" stroke="rgb(252,253,252)" stroke-width="1" opacity="1" d="M 56.5 55 L 60 57.5 L 58.5 58 L 56.5 55 Z " /><path fill="rgb(252,253,252)" stroke="rgb(252,253,252)" stroke-width="1" opacity="1" d="M 100.5 55 Q 102.8 54.3 102 56.5 L 100.5 55 Z " /><path fill="rgb(252,253,252)" stroke="rgb(252,253,252)" stroke-width="1" opacity="1" d="M 175.5 55 Q 177.8 54.3 177 56.5 L 177.5 58 L 175 57.5 L 175.5 55 Z " /><path fill="rgb(252,253,252)" stroke="rgb(252,253,252)" stroke-width="1" opacity="1" d="M 103.5 56 L 107 60.5 L 104 59.5 L 105 61.5 L 103 60.5 L 104 58.5 L 103.5 56 Z " /><path fill="rgb(252,253,252)" stroke="rgb(252,253,252)" stroke-width="1" opacity="1" d="M 31.5 57 L 32 59.5 L 31 59.5 L 31.5 57 Z " /><path fill="rgb(252,253,252)" stroke="rgb(252,253,252)" stroke-width="1" opacity="1" d="M 152.5 59 L 155 59.5 Q 152.8 60.8 155.5 62 L 157 62.5 Q 155.3 65.8 153.5 62 L 152 61.5 L 152.5 59 Z " /><path fill="rgb(252,253,252)" stroke="rgb(252,253,252)" stroke-width="1" opacity="1" d="M 28.5 61 L 30 64.5 L 28 64.5 L 29 67.5 L 27.5 73 L 27 64.5 L 28.5 61 Z " /><path fill="rgb(252,253,252)" stroke="rgb(252,253,252)" stroke-width="1" opacity="1" d="M 63.5 62 L 65.5 62 L 67.5 63 L 69.5 62 L 70.5 64 L 68 63 Q 66.9 65.7 69.5 65 L 69.5 66 Q 65 67 64 64.5 L 63.5 62 Z M 66 63 L 67 65 Q 68 62 66 63 Z " /><path fill="rgb(252,253,252)" stroke="rgb(252,253,252)" stroke-width="1" opacity="1" d="M 134.5 62 L 135 65.5 L 134 65.5 L 134.5 62 Z " /><path fill="rgb(252,253,252)" stroke="rgb(252,253,252)" stroke-width="1" opacity="1" d="M 179.5 62 L 180 66.5 L 179 66.5 L 179.5 62 Z " /><path fill="rgb(252,253,252)" stroke="rgb(252,253,252)" stroke-width="1" opacity="1" d="M 106.5 64 L 107 66.5 L 106.5 68 L 105 65.5 L 106.5 64 Z " /><path fill="rgb(252,253,252)" stroke="rgb(252,253,252)" stroke-width="1" opacity="1" d="M 177.5 68 L 178.5 70 L 177.5 68 Z " /><path fill="rgb(252,253,252)" stroke="rgb(252,253,252)" stroke-width="1" opacity="1" d="M 136.5 72 L 136 73.5 L 136.5 75 L 138 74.5 L 135.5 76 L 133 74.5 L 136.5 72 Z " /><path fill="rgb(252,253,252)" stroke="rgb(252,253,252)" stroke-width="1" opacity="1" d="M 115.5 73 L 117 76.5 L 115 75.5 L 115.5 73 Z " /><path fill="rgb(252,253,252)" stroke="rgb(252,253,252)" stroke-width="1" opacity="1" d="M 183.5 73 L 184 74.5 L 180 77.5 L 181.5 75 Q 184 75.7 183.5 73 Z " /><path fill="rgb(252,253,252)" stroke="rgb(252,253,252)" stroke-width="1" opacity="1" d="M 194.5 73 Q 196.8 72.3 196 74.5 L 196.5 76 L 194.5 73 Z " /><path fill="rgb(252,253,252)" stroke="rgb(252,253,252)" stroke-width="1" opacity="1" d="M 27 74 Q 30.7 72.7 29 78.5 L 29 80.5 L 28.5 82 Q 25.9 79.5 27 74 Z " /><path fill="rgb(252,253,252)" stroke="rgb(252,253,252)" stroke-width="1" opacity="1" d="M 176.5 74 L 177 76 L 175 75.5 L 176.5 74 Z " /><path fill="rgb(252,253,252)" stroke="rgb(252,253,252)" stroke-width="1" opacity="1" d="M 153.5 76 L 155 80 Q 151.6 79.3 150.5 82 L 149.5 80 L 151 80.5 L 152.5 78 L 154 77.5 L 153.5 76 Z " /><path fill="rgb(252,253,252)" stroke="rgb(252,253,252)" stroke-width="1" opacity="1" d="M 157.5 76 L 161 78.5 L 157 81.5 L 158 77.5 L 157.5 76 Z " /><path fill="rgb(252,253,252)" stroke="rgb(252,253,252)" stroke-width="1" opacity="1" d="M 173.5 76 Q 177 78 172.5 80 L 169.5 82 L 171.5 79 L 173 78.5 Q 170.8 77.3 173.5 76 Z " /><path fill="rgb(252,253,252)" stroke="rgb(252,253,252)" stroke-width="1" opacity="1" d="M 142.5 79 L 143.5 81 L 145 80.5 L 141 82 L 142.5 79 Z " /><path fill="rgb(252,253,252)" stroke="rgb(252,253,252)" stroke-width="1" opacity="1" d="M 198.5 79 L 199.5 81 L 197 80.5 L 198.5 79 Z " /><path fill="rgb(252,253,252)" stroke="rgb(252,253,252)" stroke-width="1" opacity="1" d="M 106.5 80 L 107 83.5 L 106 85.5 L 106 87.5 L 105.5 90 L 105 88 L 102.5 89 L 103 87.5 L 103.5 86 L 105 86.5 L 106.5 80 Z " /><path fill="rgb(252,253,252)" stroke="rgb(252,253,252)" stroke-width="1" opacity="1" d="M 161.5 80 L 163.5 81 L 167.5 80 L 167.5 81 L 162.5 82 L 161.5 80 Z " /><path fill="rgb(252,253,252)" stroke="rgb(252,253,252)" stroke-width="1" opacity="1" d="M 167.5 84 Q 170.1 83.2 169 86.5 L 168 86.5 L 167.5 84 Z " /><path fill="rgb(252,253,252)" stroke="rgb(252,253,252)" stroke-width="1" opacity="1" d="M 31.5 86 L 35 91.5 L 31.5 93 L 31.5 89 L 29.5 90 L 29 88 Q 31.8 89 31.5 86 Z " /><path fill="rgb(252,253,252)" stroke="rgb(252,253,252)" stroke-width="1" opacity="1" d="M 142.5 86 L 145 86.5 L 143.5 88 L 141 87.5 L 142.5 86 Z " /><path fill="rgb(252,253,252)" stroke="rgb(252,253,252)" stroke-width="1" opacity="1" d="M 172.5 87 L 175 88.5 L 173 89.5 L 172.5 87 Z " /><path fill="rgb(252,253,252)" stroke="rgb(252,253,252)" stroke-width="1" opacity="1" d="M 139.5 89 L 139.5 92 Q 136.5 90.5 139.5 89 Z " /><path fill="rgb(252,253,252)" stroke="rgb(252,253,252)" stroke-width="1" opacity="1" d="M 101.5 90 L 102 91.5 L 102 93.5 L 100.5 97 L 99 96.5 L 97.5 99 L 96 98.5 L 98.5 95 Q 101.8 96.1 101 93.5 L 100 91.5 L 101.5 90 Z " /><path fill="rgb(252,253,252)" stroke="rgb(252,253,252)" stroke-width="1" opacity="1" d="M 116.5 90 L 115.5 92 L 116.5 90 Z " /><path fill="rgb(252,253,252)" stroke="rgb(252,253,252)" stroke-width="1" opacity="1" d="M 196.5 93 L 197 96.5 L 195 96.5 L 193.5 99 Q 190.2 100.1 191 97.5 Q 193 99.2 195 95.5 L 194.5 94 L 196.5 93 Z " /><path fill="rgb(252,253,252)" stroke="rgb(252,253,252)" stroke-width="1" opacity="1" d="M 134.5 94 L 136 96.5 L 131.5 101 L 129 101 L 129.5 99 L 131.5 100 Q 129.8 98 133.5 96 L 135 96.5 L 134.5 94 Z " /><path fill="rgb(252,253,252)" stroke="rgb(252,253,252)" stroke-width="1" opacity="1" d="M 35.5 95 L 39 97.5 L 39 99 L 34 99 L 34.5 97 L 36 97.5 L 35.5 95 Z " /><path fill="rgb(252,253,252)" stroke="rgb(252,253,252)" stroke-width="1" opacity="1" d="M 118.5 95 L 121 96.5 L 118.5 98 L 118.5 95 Z " /><path fill="rgb(252,253,252)" stroke="rgb(252,253,252)" stroke-width="1" opacity="1" d="M 178.5 96 L 180 98.5 L 178.5 98 L 177 97.5 L 178.5 96 Z " /><path fill="rgb(252,253,252)" stroke="rgb(252,253,252)" stroke-width="1" opacity="1" d="M 188.5 99 L 192 100.5 L 189.5 101 L 188.5 99 Z " /><path fill="rgb(252,253,252)" stroke="rgb(252,253,252)" stroke-width="1" opacity="1" d="M 39 100 Q 42 99 41 102 Q 38 103 39 100 Z " /><path fill="rgb(252,253,252)" stroke="rgb(252,253,252)" stroke-width="1" opacity="1" d="M 94.5 100 L 97 100.5 L 94.5 101 L 94.5 100 Z " /><path fill="rgb(252,253,252)" stroke="rgb(252,253,252)" stroke-width="1" opacity="1" d="M 180.5 101 L 181 103.5 L 179 104.5 L 180.5 101 Z " /><path fill="rgb(252,253,252)" stroke="rgb(252,253,252)" stroke-width="1" opacity="1" d="M 42.5 102 L 43.5 104 Q 40.7 104.7 42.5 102 Z " /><path fill="rgb(252,253,252)" stroke="rgb(252,253,252)" stroke-width="1" opacity="1" d="M 92.5 102 L 93 105 L 89.5 107 L 90 105.5 L 92.5 102 Z " /><path fill="rgb(252,253,252)" stroke="rgb(252,253,252)" stroke-width="1" opacity="1" d="M 132.5 104 L 134 106.5 L 133 106.5 L 132.5 104 Z " /><path fill="rgb(252,253,252)" stroke="rgb(252,253,252)" stroke-width="1" opacity="1" d="M 40.5 105 L 41.5 107 L 39 106.5 L 40.5 105 Z " /><path fill="rgb(252,253,252)" stroke="rgb(252,253,252)" stroke-width="1" opacity="1" d="M 44.5 106 L 47 106.5 L 46.5 111 L 44 110 L 44.5 106 Z " /><path fill="rgb(252,253,252)" stroke="rgb(252,253,252)" stroke-width="1" opacity="1" d="M 86 108 Q 89 107 88 110 L 84.5 111 L 84.5 110 Q 87.1 110.7 86 108 Z " /><path fill="rgb(252,253,252)" stroke="rgb(252,253,252)" stroke-width="1" opacity="1" d="M 48.5 109 L 51 110.5 Q 50.3 112.8 52.5 112 L 55.5 116 L 53 114.5 Q 53.7 111.5 50 113 Q 51 116 48 115 Q 46.9 112.3 49.5 113 L 49 111.5 L 48.5 109 Z " /><path fill="rgb(252,253,252)" stroke="rgb(252,253,252)" stroke-width="1" opacity="1" d="M 89.5 109 L 90 111.5 L 89 111.5 L 89.5 109 Z " /><path fill="rgb(252,253,252)" stroke="rgb(252,253,252)" stroke-width="1" opacity="1" d="M 82.5 113 L 83.5 115 Q 81.8 112.3 80 116.5 L 80.5 118 L 79 117.5 Q 80.9 122.9 77.5 122 L 78 120.5 L 77 116.5 L 82.5 113 Z " /><path fill="rgb(252,253,252)" stroke="rgb(252,253,252)" stroke-width="1" opacity="1" d="M 57.5 116 L 58 118 L 55 117.5 L 57.5 116 Z " /><path fill="rgb(252,253,252)" stroke="rgb(252,253,252)" stroke-width="1" opacity="1" d="M 83.5 116 L 85 116.5 L 82.5 118 L 83.5 116 Z " /><path fill="rgb(252,253,252)" stroke="rgb(252,253,252)" stroke-width="1" opacity="1" d="M 75.5 118 L 77 118.5 L 76 121 Q 72.3 119.5 73 122.5 L 72 122.5 L 75.5 118 Z " /><path fill="rgb(252,253,252)" stroke="rgb(252,253,252)" stroke-width="1" opacity="1" d="M 132.5 118 L 135 118.5 L 134.5 121 L 132 120.5 L 132.5 118 Z " /><path fill="rgb(252,253,252)" stroke="rgb(252,253,252)" stroke-width="1" opacity="1" d="M 180.5 118 L 180 119.5 Q 180.8 122.1 177.5 121 L 177.5 120 L 180.5 118 Z " /><path fill="rgb(252,253,252)" stroke="rgb(252,253,252)" stroke-width="1" opacity="1" d="M 58.5 119 L 61 120.5 L 59.5 120 L 58.5 119 Z " /><path fill="rgb(252,253,252)" stroke="rgb(252,253,252)" stroke-width="1" opacity="1" d="M 62.5 120 L 63.5 123 L 65.5 122 L 66.5 124 L 64.5 123 L 62 124 L 62.5 120 Z " /><path fill="rgb(252,253,252)" stroke="rgb(252,253,252)" stroke-width="1" opacity="1" d="M 137.5 121 L 138 123 L 140 123.5 L 137.5 124 Q 134.5 122.5 137.5 121 Z " /><path fill="rgb(252,253,252)" stroke="rgb(252,253,252)" stroke-width="1" opacity="1" d="M 143.5 123 L 146 123.5 L 143.5 124 L 143.5 123 Z " /><path fill="rgb(252,253,252)" stroke="rgb(252,253,252)" stroke-width="1" opacity="1" d="M 27.5 135 L 26.5 137 L 27.5 135 Z " /><path fill="rgb(252,253,252)" stroke="rgb(252,253,252)" stroke-width="1" opacity="1" d="M 35.5 135 L 34.5 137 L 35.5 135 Z " /><path fill="rgb(252,253,252)" stroke="rgb(252,253,252)" stroke-width="1" opacity="1" d="M 39.5 135 L 40 136.5 L 38.5 141 L 38 137.5 L 39.5 135 Z " /><path fill="rgb(252,253,252)" stroke="rgb(252,253,252)" stroke-width="1" opacity="1" d="M 54.5 135 L 56 135.5 L 53.5 137 L 54.5 135 Z " /><path fill="rgb(252,253,252)" stroke="rgb(252,253,252)" stroke-width="1" opacity="1" d="M 60.5 135 L 61 136.5 L 58 138.5 L 58.5 136 L 60 136.5 L 60.5 135 Z " /><path fill="rgb(252,253,252)" stroke="rgb(252,253,252)" stroke-width="1" opacity="1" d="M 91.5 135 L 94 135.5 L 91 136 L 90.5 138 L 90 136.5 L 91.5 135 Z " /><path fill="rgb(252,253,252)" stroke="rgb(252,253,252)" stroke-width="1" opacity="1" d="M 144.5 135 L 144.5 138 Q 141.5 136.5 144.5 135 Z " /><path fill="rgb(252,253,252)" stroke="rgb(252,253,252)" stroke-width="1" opacity="1" d="M 167.5 135 L 169 137.5 L 168 137.5 L 167.5 135 Z " /><path fill="rgb(252,253,252)" stroke="rgb(252,253,252)" stroke-width="1" opacity="1" d="M 192.5 135 L 194 135.5 L 191.5 137 L 192.5 135 Z " /><path fill="rgb(252,253,252)" stroke="rgb(252,253,252)" stroke-width="1" opacity="1" d="M 140.5 136 L 140 137.5 L 140 150 L 144.5 150 L 145.5 152 L 142.5 151 L 140.5 151 L 136 150.5 L 139 150 L 139 137.5 L 140.5 136 Z " /><path fill="rgb(252,253,252)" stroke="rgb(252,253,252)" stroke-width="1" opacity="1" d="M 97.5 137 L 98 150 L 101 150.5 L 97.5 152 L 97 149.5 L 97.5 137 Z " /><path fill="rgb(252,253,252)" stroke="rgb(252,253,252)" stroke-width="1" opacity="1" d="M 121.5 137 L 125 139.5 L 124.5 141 L 121.5 137 Z " /><path fill="rgb(252,253,252)" stroke="rgb(252,253,252)" stroke-width="1" opacity="1" d="M 150.5 137 L 151 138.5 L 149 139.5 L 150.5 137 Z " /><path fill="rgb(252,253,252)" stroke="rgb(252,253,252)" stroke-width="1" opacity="1" d="M 163.5 137 L 164 146.5 L 163 146.5 L 162 141.5 L 163.5 137 Z " /><path fill="rgb(252,253,252)" stroke="rgb(252,253,252)" stroke-width="1" opacity="1" d="M 176.5 137 L 177 150 L 185 150.5 L 176.5 151 L 175.5 152 L 174 149.5 L 176 149.5 L 176.5 137 Z " /><path fill="rgb(252,253,252)" stroke="rgb(252,253,252)" stroke-width="1" opacity="1" d="M 51.5 138 L 50.5 140 L 51.5 138 Z " /><path fill="rgb(252,253,252)" stroke="rgb(252,253,252)" stroke-width="1" opacity="1" d="M 74.5 140 L 76 144 L 73.5 145 L 73 143 L 75 142.5 L 74.5 140 Z " /><path fill="rgb(252,253,252)" stroke="rgb(252,253,252)" stroke-width="1" opacity="1" d="M 105.5 140 L 106 142.5 L 105 142.5 L 105.5 140 Z " /><path fill="rgb(252,253,252)" stroke="rgb(252,253,252)" stroke-width="1" opacity="1" d="M 141.5 141 L 143 143.5 L 141 142.5 L 141.5 141 Z " /><path fill="rgb(252,253,252)" stroke="rgb(252,253,252)" stroke-width="1" opacity="1" d="M 38.5 143 L 39 145.5 L 38 145.5 L 38.5 143 Z " /><path fill="rgb(252,253,252)" stroke="rgb(252,253,252)" stroke-width="1" opacity="1" d="M 50.5 143 L 51.5 145 L 50.5 143 Z " /><path fill="rgb(252,253,252)" stroke="rgb(252,253,252)" stroke-width="1" opacity="1" d="M 81.5 143 L 86 143.5 L 81.5 144 L 81.5 143 Z " /><path fill="rgb(252,253,252)" stroke="rgb(252,253,252)" stroke-width="1" opacity="1" d="M 48.5 145 L 50.5 148 L 48.5 145 Z " /><path fill="rgb(252,253,252)" stroke="rgb(252,253,252)" stroke-width="1" opacity="1" d="M 70.5 146 L 71 148.5 L 70 148.5 L 70.5 146 Z " /><path fill="rgb(252,253,252)" stroke="rgb(252,253,252)" stroke-width="1" opacity="1" d="M 153.5 146 L 155 149.5 L 152 147.5 L 153.5 146 Z " /><path fill="rgb(252,253,252)" stroke="rgb(252,253,252)" stroke-width="1" opacity="1" d="M 27.5 147 L 27.5 150 Q 24.5 148.5 27.5 147 Z " /><path fill="rgb(252,253,252)" stroke="rgb(252,253,252)" stroke-width="1" opacity="1" d="M 79.5 147 L 80.5 149 L 79.5 147 Z " /><path fill="rgb(252,253,252)" stroke="rgb(252,253,252)" stroke-width="1" opacity="1" d="M 86.5 147 L 85.5 149 L 86.5 147 Z " /><path fill="rgb(252,253,252)" stroke="rgb(252,253,252)" stroke-width="1" opacity="1" d="M 48.5 148 L 52.5 150 L 54 149.5 L 49.5 152 Q 47 151 48.5 148 Z " /><path fill="rgb(252,253,252)" stroke="rgb(252,253,252)" stroke-width="1" opacity="1" d="M 75.5 148 L 76 150.5 L 74.5 152 L 72.5 151 Q 71.3 153.3 70 150.5 Q 74.3 150.8 75.5 148 Z " /><path fill="rgb(252,253,252)" stroke="rgb(252,253,252)" stroke-width="1" opacity="1" d="M 104.5 148 L 105.5 151 L 108.5 150 L 108.5 151 L 104 152 L 103 149.5 L 104.5 148 Z " /><path fill="rgb(252,253,252)" stroke="rgb(252,253,252)" stroke-width="1" opacity="1" d="M 62.5 149 L 67 150.5 L 64.5 152 L 59 150.5 L 62.5 149 Z " /><path fill="rgb(252,253,252)" stroke="rgb(252,253,252)" stroke-width="1" opacity="1" d="M 90.5 149 L 91.5 151 L 96 150 L 95.5 152 L 93.5 151 L 90 152 L 90.5 149 Z " /><path fill="rgb(252,253,252)" stroke="rgb(252,253,252)" stroke-width="1" opacity="1" d="M 122.5 149 L 126 150.5 L 123.5 152 L 121.5 152 L 120 151.5 L 122.5 149 Z " /><path fill="rgb(252,253,252)" stroke="rgb(252,253,252)" stroke-width="1" opacity="1" d="M 131.5 149 L 135 150.5 L 131.5 152 L 130 151.5 L 132 150.5 L 131.5 149 Z " /><path fill="rgb(252,253,252)" stroke="rgb(252,253,252)" stroke-width="1" opacity="1" d="M 30.5 150 L 29.5 152 L 30.5 150 Z " /><path fill="rgb(252,253,252)" stroke="rgb(252,253,252)" stroke-width="1" opacity="1" d="M 40.5 150 Q 44.3 149.3 45 151.5 L 43.5 151 Q 39.5 151.8 40.5 150 Z " /><path fill="rgb(252,253,252)" stroke="rgb(252,253,252)" stroke-width="1" opacity="1" d="M 111.5 150 L 117 150.5 L 111.5 151 L 111.5 150 Z " /><path fill="rgb(252,253,252)" stroke="rgb(252,253,252)" stroke-width="1" opacity="1" d="M 150.5 150 L 155 151.5 L 153.5 152 L 150.5 151 L 149 151.5 L 150.5 150 Z " /><path fill="rgb(252,253,252)" stroke="rgb(252,253,252)" stroke-width="1" opacity="1" d="M 156.5 150 L 160 150.5 L 156.5 151 L 156.5 150 Z " /><path fill="rgb(252,253,252)" stroke="rgb(252,253,252)" stroke-width="1" opacity="1" d="M 171.5 150 L 172.5 152 L 171.5 150 Z " /><path fill="rgb(252,253,252)" stroke="rgb(252,253,252)" stroke-width="1" opacity="1" d="M 188.5 150 L 191 150.5 L 188.5 151 L 188.5 150 Z " /><path fill="rgb(252,253,252)" stroke="rgb(252,253,252)" stroke-width="1" opacity="1" d="M 197.5 150 Q 203.3 148.3 202 152 L 197.5 151 L 197.5 150 Z " /><path fill="rgb(252,253,252)" stroke="rgb(252,253,252)" stroke-width="1" opacity="1" d="M 42 155 L 44 155.5 L 42.5 158 L 42 155 Z " /><path fill="rgb(252,253,252)" stroke="rgb(252,253,252)" stroke-width="1" opacity="1" d="M 45.5 155 L 48 156.5 Q 48.8 158.8 46.5 158 L 46.5 156 L 45.5 155 Z " /><path fill="rgb(252,253,252)" stroke="rgb(252,253,252)" stroke-width="1" opacity="1" d="M 73.5 156 L 72.5 158 L 73.5 156 Z " /><path fill="rgb(252,253,252)" stroke="rgb(252,253,252)" stroke-width="1" opacity="1" d="M 95.5 156 L 97 156.5 L 94.5 158 L 95.5 156 Z " /><path fill="rgb(252,253,252)" stroke="rgb(252,253,252)" stroke-width="1" opacity="1" d="M 128.5 156 L 129.5 158 L 128.5 156 Z " /><path fill="rgb(252,253,252)" stroke="rgb(252,253,252)" stroke-width="1" opacity="1" d="M 155.5 156 L 156 158 L 153.5 159 L 153 157 L 155.5 156 Z " /><path fill="rgb(252,253,252)" stroke="rgb(252,253,252)" stroke-width="1" opacity="1" d="M 26.5 157 L 27 162.5 L 26 162.5 L 26.5 157 Z " /><path fill="rgb(252,253,252)" stroke="rgb(252,253,252)" stroke-width="1" opacity="1" d="M 38.5 157 L 39 164 L 45.5 165 L 47.5 162 L 48.5 165 L 51.5 164 L 52.5 166 L 49.5 165 Q 48 167.5 42.5 166 L 40.5 166 L 37.5 165 Q 36.2 167.3 31.5 166 L 32.5 164 L 36.5 165 L 38 163.5 L 38.5 157 Z " /><path fill="rgb(252,253,252)" stroke="rgb(252,253,252)" stroke-width="1" opacity="1" d="M 60.5 157 L 61.5 159 L 60.5 157 Z " /><path fill="rgb(252,253,252)" stroke="rgb(252,253,252)" stroke-width="1" opacity="1" d="M 66.5 157 L 68.5 158 L 70 157.5 L 67.5 159 L 66.5 157 Z " /><path fill="rgb(252,253,252)" stroke="rgb(252,253,252)" stroke-width="1" opacity="1" d="M 101.5 157 L 105 157.5 L 101.5 158 L 101.5 157 Z " /><path fill="rgb(252,253,252)" stroke="rgb(252,253,252)" stroke-width="1" opacity="1" d="M 106.5 157 L 109 158.5 L 108.5 160 L 108 158 L 106.5 157 Z " /><path fill="rgb(252,253,252)" stroke="rgb(252,253,252)" stroke-width="1" opacity="1" d="M 116.5 157 L 119 157.5 Q 116.9 160.8 116.5 157 Z " /><path fill="rgb(252,253,252)" stroke="rgb(252,253,252)" stroke-width="1" opacity="1" d="M 135.5 157 Q 139.7 155.7 138 160.5 L 137 160.5 Q 138.1 157.2 135.5 158 L 135.5 157 Z " /><path fill="rgb(252,253,252)" stroke="rgb(252,253,252)" stroke-width="1" opacity="1" d="M 139.5 157 L 142 157.5 L 139.5 158 L 139.5 157 Z " /><path fill="rgb(252,253,252)" stroke="rgb(252,253,252)" stroke-width="1" opacity="1" d="M 146.5 157 L 147.5 164 L 148.5 162 L 149 164 L 151.5 163 L 154.5 164 L 158.5 164 L 162.5 163 L 163.5 165 L 165.5 164 L 166.5 165 L 169 163.5 Q 170.3 167.7 165.5 166 L 163.5 166 Q 157.3 167.7 155.5 165 L 154.5 166 L 142 166 Q 140.8 162.3 146 164 L 146.5 157 Z " /><path fill="rgb(252,253,252)" stroke="rgb(252,253,252)" stroke-width="1" opacity="1" d="M 157.5 157 L 160 157.5 L 157.5 158 L 157.5 157 Z " /><path fill="rgb(252,253,252)" stroke="rgb(252,253,252)" stroke-width="1" opacity="1" d="M 166.5 157 Q 170.7 155.9 169 160 L 167 159.5 L 167.5 158 L 166.5 157 Z " /><path fill="rgb(252,253,252)" stroke="rgb(252,253,252)" stroke-width="1" opacity="1" d="M 174.5 157 L 177 157.5 Q 174.9 160.8 174.5 157 Z " /><path fill="rgb(252,253,252)" stroke="rgb(252,253,252)" stroke-width="1" opacity="1" d="M 181.5 157 L 185 157.5 L 181.5 158 L 181.5 157 Z " /><path fill="rgb(252,253,252)" stroke="rgb(252,253,252)" stroke-width="1" opacity="1" d="M 49.5 159 L 51 162.5 L 50 162.5 L 49.5 159 Z " /><path fill="rgb(252,253,252)" stroke="rgb(252,253,252)" stroke-width="1" opacity="1" d="M 86.5 159 L 87 161.5 L 86 161.5 L 86.5 159 Z " /><path fill="rgb(252,253,252)" stroke="rgb(252,253,252)" stroke-width="1" opacity="1" d="M 88.5 159 L 89 165.5 L 86.5 166 Q 82.8 167 84 164 L 86.5 163 L 88 163.5 L 88.5 159 Z " /><path fill="rgb(252,253,252)" stroke="rgb(252,253,252)" stroke-width="1" opacity="1" d="M 92.5 159 L 95 160 L 93.5 163 L 92.5 159 Z " /><path fill="rgb(252,253,252)" stroke="rgb(252,253,252)" stroke-width="1" opacity="1" d="M 119.5 159 Q 124 161 120.5 163 L 119.5 159 Z " /><path fill="rgb(252,253,252)" stroke="rgb(252,253,252)" stroke-width="1" opacity="1" d="M 129.5 159 Q 132.1 158.2 131 161.5 L 131.5 164 L 133.5 163 L 136.5 164 Q 142.3 162.3 141 166 L 134.5 166 L 134 164.5 L 133 164.5 L 132.5 166 L 121.5 166 L 119.5 165 L 115.5 166 L 116.5 164 L 118.5 165 L 120.5 164 L 122 164.5 L 124.5 161 L 127 162.5 L 125.5 162 L 123 163.5 Q 124.3 166.3 125.5 164 L 129 165 Q 127.9 162.3 130.5 163 L 129.5 161 L 128 160.5 L 129.5 159 Z " /><path fill="rgb(252,253,252)" stroke="rgb(252,253,252)" stroke-width="1" opacity="1" d="M 67.5 160 L 68 162.5 L 67 162.5 L 67.5 160 Z " /><path fill="rgb(252,253,252)" stroke="rgb(252,253,252)" stroke-width="1" opacity="1" d="M 181.5 160 L 183 163 L 181 162.5 L 181.5 160 Z " /><path fill="rgb(252,253,252)" stroke="rgb(252,253,252)" stroke-width="1" opacity="1" d="M 79.5 161 L 80 164 L 83 164.5 L 81.5 166 L 75 166 Q 76.1 163.3 73.5 164 L 73.5 163 L 79 164 L 79.5 161 Z " /><path fill="rgb(252,253,252)" stroke="rgb(252,253,252)" stroke-width="1" opacity="1" d="M 162.5 161 L 165 162.5 L 163.5 162 L 162.5 161 Z " /><path fill="rgb(252,253,252)" stroke="rgb(252,253,252)" stroke-width="1" opacity="1" d="M 65.5 162 L 66 164 L 69.5 165 L 71.5 164 L 72.5 166 L 70.5 166 L 62.5 166 L 62 164 Q 65.8 165.3 65.5 162 Z " /><path fill="rgb(252,253,252)" stroke="rgb(252,253,252)" stroke-width="1" opacity="1" d="M 58.5 163 Q 61.5 162.2 60 166 Q 56.2 167 55 164.5 L 58.5 163 Z " /><path fill="rgb(252,253,252)" stroke="rgb(252,253,252)" stroke-width="1" opacity="1" d="M 95.5 163 Q 97.2 165.8 103.5 164 L 107.5 164 L 110.5 165 L 114 164 Q 115.1 167.5 107.5 166 L 105.5 166 Q 100 167.5 98.5 165 L 95.5 166 L 95.5 163 Z " /><path fill="rgb(252,253,252)" stroke="rgb(252,253,252)" stroke-width="1" opacity="1" d="M 186.5 163 Q 188 166.5 189.5 164 L 191.5 165 L 193.5 164 L 195 164.5 L 195.5 163 L 196.5 164 L 203 164 Q 204.3 167.3 199.5 166 L 197.5 166 L 193.5 165 L 192.5 166 L 181.5 166 L 180.5 164 Q 185.2 165.3 186.5 163 Z " /><path fill="rgb(252,253,252)" stroke="rgb(252,253,252)" stroke-width="1" opacity="1" d="M 26.5 164 L 28.5 165 L 30 164.5 L 26 166 L 26.5 164 Z " /><path fill="rgb(252,253,252)" stroke="rgb(252,253,252)" stroke-width="1" opacity="1" d="M 90.5 164 L 92.5 164 L 94 164.5 L 90 166 L 90.5 164 Z " /><path fill="rgb(252,253,252)" stroke="rgb(252,253,252)" stroke-width="1" opacity="1" d="M 170 164 L 174.5 165 L 178 164.5 Q 178.9 167.9 173.5 166 L 171.5 166 Q 168.9 166.7 170 164 Z " /><path fill="rgb(255,255,255)" stroke="rgb(255,255,255)" stroke-width="1" opacity="1" d="M 0 0 L 225 0 L 225 225 L 0 225 L 0 0 Z M 93 50 L 90 52 L 80 54 L 77 53 L 77 55 L 75 59 L 71 58 Q 69 62 73 61 L 72 63 L 69 62 L 70 65 L 68 63 L 67 65 L 66 65 L 67 63 L 66 62 L 64 62 Q 60 63 62 59 L 60 59 L 60 58 L 57 55 L 55 56 L 56 52 L 53 52 Q 54 55 52 54 L 52 52 L 50 53 L 45 52 L 43 53 Q 44 50 41 51 L 41 53 L 39 53 L 33 59 L 32 57 Q 32 62 30 64 L 29 61 L 27 65 L 28 73 L 28 69 L 29 69 Q 31 75 27 74 L 28 82 L 31 81 L 32 85 L 31 87 Q 32 89 29 88 L 30 90 L 32 89 L 32 93 L 35 92 L 37 96 L 36 98 L 35 97 L 34 99 L 40 100 L 39 102 L 42 101 L 42 104 L 46 105 L 49 112 L 53 113 L 55 116 L 57 115 L 57 117 L 55 118 L 58 118 Q 59 115 61 119 L 62 119 L 62 124 L 64 124 L 63 123 L 64 121 L 64 123 L 69 124 L 71 124 L 72 121 L 72 123 L 73 123 Q 72 120 76 121 L 77 118 L 78 118 L 77 122 L 79 122 L 79 118 L 83 113 L 87 111 L 88 107 L 92 105 L 93 105 L 93 101 L 97 101 L 99 97 L 101 97 L 102 94 L 101 94 Q 102 96 99 95 Q 98 92 101 93 L 102 90 L 103 87 L 105 88 L 106 90 L 106 88 L 106 86 L 107 81 L 105 81 Q 108 77 106 69 L 107 68 L 104 63 L 106 62 L 107 60 L 103 57 L 104 59 L 103 59 Q 100 58 102 57 Q 103 54 101 55 Q 99 57 98 55 L 101 53 L 100 52 L 96 52 L 94 53 L 93 50 Z M 137 53 L 137 55 L 139 54 L 137 53 Z M 167 53 Q 167 56 165 55 Q 159 58 157 66 Q 156 72 158 76 L 158 78 L 159 81 L 160 78 L 165 81 Q 170 82 172 78 L 174 79 Q 176 78 174 77 L 178 69 L 178 62 L 174 55 L 173 55 L 167 53 Z M 140 54 L 135 59 L 134 63 L 137 75 L 142 80 L 141 81 Q 140 83 144 82 L 144 80 Q 145 82 150 81 L 153 80 Q 156 81 155 78 L 153 78 L 155 74 Q 156 66 153 63 L 156 64 L 157 63 L 156 62 Q 153 61 155 60 L 153 59 L 153 61 L 150 58 L 150 56 L 148 54 L 148 56 Q 146 52 140 54 Z M 33 55 L 33 56 L 35 56 L 33 55 Z M 161 55 L 161 57 L 163 56 L 161 55 Z M 176 55 L 177 57 Q 178 54 176 55 Z M 151 56 L 152 58 Q 153 55 151 56 Z M 159 57 L 159 59 L 161 58 L 159 57 Z M 180 62 L 179 67 L 180 67 L 180 62 Z M 116 73 L 115 76 L 116 76 L 116 73 Z M 120 73 L 115 80 Q 114 88 117 93 L 119 95 L 119 98 L 121 97 L 130 101 L 132 101 L 130 100 L 132 99 L 135 95 Q 137 83 132 79 Q 130 72 120 73 Z M 135 73 L 133 75 L 137 76 L 136 75 Q 137 72 135 73 Z M 186 73 Q 180 77 178 85 Q 176 97 184 100 Q 189 101 191 98 L 194 99 L 195 97 L 192 98 Q 194 93 197 97 L 197 94 L 195 94 L 198 88 L 197 78 Q 195 72 188 73 L 186 73 Z M 195 73 L 196 75 Q 197 72 195 73 Z M 177 74 L 175 76 L 177 76 L 177 74 Z M 182 75 L 180 78 L 183 76 L 182 75 Z M 171 80 L 169 82 L 171 82 L 171 80 Z M 156 81 L 145 86 L 137 96 L 135 96 L 136 98 L 133 106 Q 132 114 134 118 L 132 119 Q 133 121 135 119 L 138 124 L 140 124 L 138 123 Q 147 123 152 119 Q 163 118 170 122 Q 175 124 177 121 Q 181 122 180 120 L 178 120 L 180 117 Q 182 105 178 100 L 179 97 L 178 97 L 169 87 Q 170 83 168 84 L 168 86 Q 163 82 156 81 Z M 173 88 L 173 90 L 175 89 L 173 88 Z M 190 100 L 190 101 L 192 101 L 190 100 Z M 181 101 L 180 104 L 181 104 L 181 101 Z M 45 106 Q 42 111 46 110 Q 49 108 45 106 Z M 90 109 L 89 112 L 90 112 L 90 109 Z M 48 113 Q 47 116 50 115 Q 51 112 48 113 Z M 144 123 L 144 124 L 146 124 L 144 123 Z M 92 135 L 92 136 L 94 136 L 92 135 Z M 27 137 L 27 148 L 31 151 L 37 150 L 39 146 L 38 143 L 39 137 L 35 137 L 35 147 L 34 147 Q 32 149 31 147 L 31 137 L 27 137 Z M 40 137 L 40 151 Q 46 153 44 146 L 49 146 Q 52 145 51 140 L 49 137 L 40 137 Z M 55 137 L 50 149 L 48 149 L 50 152 L 53 151 L 54 148 Q 58 147 59 150 Q 58 153 64 151 L 66 151 L 67 151 L 67 146 Q 71 144 70 149 L 70 151 Q 71 153 73 151 L 75 152 Q 78 150 74 149 L 74 144 Q 77 145 76 143 L 75 143 L 75 142 L 74 139 L 73 137 L 63 137 L 63 149 L 61 146 L 62 144 L 60 143 L 59 139 Q 58 136 55 137 Z M 92 137 L 92 151 L 91 149 L 90 152 L 95 151 L 96 152 L 96 138 L 92 137 Z M 97 137 L 97 150 L 101 151 L 102 143 L 107 151 L 109 151 L 109 137 Q 103 135 105 143 L 106 144 L 102 139 L 102 137 L 97 137 Z M 111 137 L 111 151 L 120 150 L 123 145 L 122 140 L 120 137 L 111 137 Z M 128 137 L 123 149 L 120 152 L 122 152 L 124 152 L 126 151 L 128 148 Q 132 146 131 150 Q 133 154 135 151 L 132 139 Q 131 136 128 137 Z M 136 137 L 136 151 L 141 151 L 143 151 L 146 152 L 144 150 L 144 148 L 149 148 L 151 151 Q 154 152 153 150 L 155 150 L 155 148 L 154 148 L 149 139 L 149 137 L 144 137 L 141 149 L 140 149 L 140 137 L 136 137 Z M 152 137 L 152 140 L 156 141 L 156 151 L 160 151 L 159 150 L 159 140 L 163 140 L 162 142 L 163 147 L 163 149 Q 165 152 172 151 L 175 148 L 175 137 L 171 137 L 171 147 Q 170 149 169 147 L 167 147 L 167 137 L 152 137 Z M 176 137 L 176 150 L 174 150 L 176 152 L 187 150 L 188 148 L 187 144 L 188 140 L 186 137 L 176 137 Z M 192 137 L 188 149 Q 187 152 191 151 L 192 148 L 197 148 L 197 151 L 202 152 L 197 140 L 197 137 L 192 137 Z M 123 138 L 125 141 L 125 140 L 123 138 Z M 82 143 L 80 145 L 80 147 L 86 147 Q 88 141 82 143 Z M 105 150 Q 103 153 106 152 L 105 150 Z M 42 155 L 43 159 L 42 162 L 41 157 L 36 157 L 36 159 L 35 159 Q 36 156 33 157 Q 35 164 31 166 L 37 166 L 36 163 L 40 166 L 42 165 Q 43 168 49 166 L 49 164 L 53 166 L 52 165 Q 55 164 54 160 Q 54 157 50 157 L 47 161 L 46 159 L 45 158 L 47 155 L 45 156 L 42 155 Z M 48 156 L 46 158 L 48 158 L 48 156 Z M 156 156 L 150 159 L 149 157 L 144 157 L 144 164 L 143 164 L 143 157 L 133 157 L 131 163 Q 128 164 129 162 L 131 162 L 131 159 L 128 157 L 124 157 L 124 159 Q 122 156 117 157 L 117 159 Q 115 156 111 157 L 111 165 L 107 160 L 108 158 L 97 157 L 97 160 L 96 159 Q 95 156 91 157 L 90 160 Q 89 164 92 165 L 91 164 L 90 166 L 96 164 L 97 162 L 97 164 L 96 166 L 99 165 Q 100 168 106 166 L 108 166 Q 115 168 114 164 L 117 163 L 120 165 L 122 164 L 122 166 L 133 166 L 133 165 L 135 164 L 134 166 L 141 166 L 141 165 L 141 163 L 142 166 L 155 166 L 156 165 Q 157 168 164 166 L 163 165 L 166 166 Q 170 168 169 164 L 166 165 L 168 162 L 168 160 Q 170 161 169 157 L 163 158 L 156 156 Z M 26 157 L 26 163 L 29 164 L 31 164 L 32 164 L 32 157 Q 28 156 30 162 L 29 162 Q 31 155 26 157 Z M 56 157 L 56 164 Q 54 165 57 166 Q 62 168 60 163 L 58 163 L 62 161 L 62 166 L 71 166 L 75 164 L 75 162 L 74 160 L 76 159 L 75 165 Q 75 168 82 166 L 84 165 Q 83 167 87 166 L 89 166 L 90 157 L 75 157 L 74 158 L 70 157 L 68 157 Q 63 156 62 158 L 56 157 Z M 170 157 L 170 166 L 175 164 Q 176 162 177 165 L 176 164 L 174 165 L 174 166 Q 179 168 178 164 L 182 166 L 193 166 L 195 164 L 195 166 L 199 165 L 203 166 L 200 159 Q 201 156 199 157 L 197 161 L 196 157 L 194 157 L 194 162 L 192 162 L 192 157 L 190 158 L 189 157 L 170 157 Z M 27 164 L 26 166 L 29 166 L 27 164 Z M 117 164 L 116 166 L 119 166 L 117 164 Z " /><path fill="rgb(255,255,255)" stroke="rgb(255,255,255)" stroke-width="1" opacity="1" d="M 29.5 77 L 30 79.5 L 29 79.5 L 29.5 77 Z " /><path fill="rgb(255,255,255)" stroke="rgb(255,255,255)" stroke-width="1" opacity="1" d="M 104 82 L 106 82.5 L 104.5 87 L 104 82 Z " /><path fill="rgb(255,255,255)" stroke="rgb(255,255,255)" stroke-width="1" opacity="1" d="M 44 140 Q 47.7 138.5 47 141.5 L 44 143 L 44 140 Z " /><path fill="rgb(255,255,255)" stroke="rgb(255,255,255)" stroke-width="1" opacity="1" d="M 67 140 Q 72.2 138.3 71 142 Q 65.8 143.7 67 140 Z " /><path fill="rgb(255,255,255)" stroke="rgb(255,255,255)" stroke-width="1" opacity="1" d="M 114 140 Q 117.8 139 119 141.5 Q 120 146 117.5 147 L 114 147 L 114 140 Z " /><path fill="rgb(255,255,255)" stroke="rgb(255,255,255)" stroke-width="1" opacity="1" d="M 180 140 L 184 140.5 L 180 142 L 180 140 Z " /><path fill="rgb(255,255,255)" stroke="rgb(255,255,255)" stroke-width="1" opacity="1" d="M 56.5 142 L 57 145 Q 54.3 146.1 55 143.5 L 56.5 142 Z " /><path fill="rgb(255,255,255)" stroke="rgb(255,255,255)" stroke-width="1" opacity="1" d="M 128.5 142 L 130 145 Q 126.5 146.1 128.5 142 Z " /><path fill="rgb(255,255,255)" stroke="rgb(255,255,255)" stroke-width="1" opacity="1" d="M 146.5 142 L 148 144.5 L 146 145 L 146.5 142 Z " /><path fill="rgb(255,255,255)" stroke="rgb(255,255,255)" stroke-width="1" opacity="1" d="M 194.5 142 L 195 145 L 193 144.5 L 194.5 142 Z " /><path fill="rgb(255,255,255)" stroke="rgb(255,255,255)" stroke-width="1" opacity="1" d="M 180 145 Q 185.2 143.3 184 147 Q 178.8 148.7 180 145 Z " /><path fill="rgb(255,255,255)" stroke="rgb(255,255,255)" stroke-width="1" opacity="1" d="M 102.5 158 Q 104.8 157.3 104 159.5 L 102.5 163 L 102 160.5 L 102.5 158 Z " /><path fill="rgb(255,255,255)" stroke="rgb(255,255,255)" stroke-width="1" opacity="1" d="M 154.5 158 L 155 159.5 L 153.5 163 L 153 159.5 L 154.5 158 Z " /><path fill="rgb(255,255,255)" stroke="rgb(255,255,255)" stroke-width="1" opacity="1" d="M 158 158 Q 161.7 156.7 160 162.5 L 159 162.5 L 158 158 Z " /><path fill="rgb(255,255,255)" stroke="rgb(255,255,255)" stroke-width="1" opacity="1" d="M 182.5 158 L 184 158.5 L 184 164 L 182 163.5 L 183 161.5 L 181 161.5 L 181.5 160 L 178 159.5 L 182.5 158 Z " /><path fill="rgb(255,255,255)" stroke="rgb(255,255,255)" stroke-width="1" opacity="1" d="M 50.5 159 L 52 161.5 L 51 161.5 L 50.5 160 L 49.5 162 L 49 160.5 L 50.5 159 Z " /><path fill="rgb(255,255,255)" stroke="rgb(255,255,255)" stroke-width="1" opacity="1" d="M 70 159 Q 73.3 157.9 72 162 Q 68.7 163.1 70 159 Z " /><path fill="rgb(255,255,255)" stroke="rgb(255,255,255)" stroke-width="1" opacity="1" d="M 78 159 Q 80.7 157.9 80 160.5 L 78.5 164 L 78 159 Z " /><path fill="rgb(255,255,255)" stroke="rgb(255,255,255)" stroke-width="1" opacity="1" d="M 82.5 159 Q 88.2 157.2 86 163.5 L 85 163.5 Q 86.7 158.7 82.5 160 L 82.5 159 Z " /><path fill="rgb(255,255,255)" stroke="rgb(255,255,255)" stroke-width="1" opacity="1" d="M 93.5 159 L 93 160.5 L 92.5 162 L 92 160.5 L 93.5 159 Z " /><path fill="rgb(255,255,255)" stroke="rgb(255,255,255)" stroke-width="1" opacity="1" d="M 113.5 159 L 115 162 Q 111.5 163.1 113.5 159 Z " /><path fill="rgb(255,255,255)" stroke="rgb(255,255,255)" stroke-width="1" opacity="1" d="M 120.5 159 Q 123.5 160.5 120.5 162 Q 118.3 162.8 119 160.5 L 120.5 159 Z " /><path fill="rgb(255,255,255)" stroke="rgb(255,255,255)" stroke-width="1" opacity="1" d="M 172 159 Q 175.3 157.9 174 162 Q 170.7 163.1 172 159 Z " /><path fill="rgb(255,255,255)" stroke="rgb(255,255,255)" stroke-width="1" opacity="1" d="M 186.5 162 Q 188.8 161.3 188 163.5 L 188.5 165 L 186.5 162 Z " /><path fill="rgb(255,255,255)" stroke="rgb(255,255,255)" stroke-width="1" opacity="1" d="M 43.5 163 L 46 164.5 L 44.5 164 L 43.5 163 Z " /><path fill="rgb(255,255,255)" stroke="rgb(255,255,255)" stroke-width="1" opacity="1" d="M 68.5 163 L 69.5 165 L 68.5 163 Z " /><path fill="rgb(255,255,255)" stroke="rgb(255,255,255)" stroke-width="1" opacity="1" d="M 105.5 163 L 104.5 165 L 105.5 163 Z " /><path fill="rgb(255,255,255)" stroke="rgb(255,255,255)" stroke-width="1" opacity="1" d="M 123.5 163 L 124.5 165 L 123.5 163 Z " /><path fill="rgb(255,255,255)" stroke="rgb(255,255,255)" stroke-width="1" opacity="1" d="M 190.5 163 L 191.5 165 L 190.5 163 Z " /><path fill="rgb(181,93,99)" stroke="rgb(181,93,99)" stroke-width="1" opacity="1" d="M 43.5 53 L 48 53.5 L 43.5 54 L 43.5 53 Z " /><path fill="rgb(181,93,99)" stroke="rgb(181,93,99)" stroke-width="1" opacity="1" d="M 141.5 54 L 144 54.5 L 141.5 55 L 141.5 54 Z " /><path fill="rgb(181,93,99)" stroke="rgb(181,93,99)" stroke-width="1" opacity="1" d="M 37.5 55 L 35.5 58 L 37.5 55 Z " /><path fill="rgb(181,93,99)" stroke="rgb(181,93,99)" stroke-width="1" opacity="1" d="M 56.5 57 L 57.5 59 L 56.5 57 Z " /><path fill="rgb(181,93,99)" stroke="rgb(181,93,99)" stroke-width="1" opacity="1" d="M 162.5 57 L 161.5 59 L 162.5 57 Z " /><path fill="rgb(181,93,99)" stroke="rgb(181,93,99)" stroke-width="1" opacity="1" d="M 33.5 59 L 32.5 61 L 33.5 59 Z " /><path fill="rgb(181,93,99)" stroke="rgb(181,93,99)" stroke-width="1" opacity="1" d="M 75.5 59 L 73.5 62 L 75.5 59 Z " /><path fill="rgb(181,93,99)" stroke="rgb(181,93,99)" stroke-width="1" opacity="1" d="M 62.5 63 L 63.5 65 L 62.5 63 Z " /><path fill="rgb(181,93,99)" stroke="rgb(181,93,99)" stroke-width="1" opacity="1" d="M 71.5 64 L 70.5 66 L 71.5 64 Z " /><path fill="rgb(181,93,99)" stroke="rgb(181,93,99)" stroke-width="1" opacity="1" d="M 157.5 68 L 158 70.5 L 157 70.5 L 157.5 68 Z " /><path fill="rgb(181,93,99)" stroke="rgb(181,93,99)" stroke-width="1" opacity="1" d="M 30.5 75 L 31 77.5 L 30 77.5 L 30.5 75 Z " /><path fill="rgb(181,93,99)" stroke="rgb(181,93,99)" stroke-width="1" opacity="1" d="M 152.5 77 L 150.5 80 L 152.5 77 Z " /><path fill="rgb(181,93,99)" stroke="rgb(181,93,99)" stroke-width="1" opacity="1" d="M 115.5 81 L 116 84.5 L 115 84.5 L 115.5 81 Z " /><path fill="rgb(181,93,99)" stroke="rgb(181,93,99)" stroke-width="1" opacity="1" d="M 178.5 86 L 179 91.5 L 178 91.5 L 178.5 86 Z " /><path fill="rgb(181,93,99)" stroke="rgb(181,93,99)" stroke-width="1" opacity="1" d="M 139.5 92 L 138.5 94 L 139.5 92 Z " /><path fill="rgb(181,93,99)" stroke="rgb(181,93,99)" stroke-width="1" opacity="1" d="M 37.5 94 L 38.5 96 L 37.5 94 Z " /><path fill="rgb(181,93,99)" stroke="rgb(181,93,99)" stroke-width="1" opacity="1" d="M 97.5 94 L 96.5 96 L 97.5 94 Z " /><path fill="rgb(181,93,99)" stroke="rgb(181,93,99)" stroke-width="1" opacity="1" d="M 119.5 94 L 122.5 98 L 119.5 94 Z " /><path fill="rgb(181,93,99)" stroke="rgb(181,93,99)" stroke-width="1" opacity="1" d="M 180.5 96 L 181.5 98 L 180.5 96 Z " /><path fill="rgb(181,93,99)" stroke="rgb(181,93,99)" stroke-width="1" opacity="1" d="M 40.5 98 L 43.5 102 L 40.5 98 Z " /><path fill="rgb(181,93,99)" stroke="rgb(181,93,99)" stroke-width="1" opacity="1" d="M 94.5 98 L 92.5 101 L 94.5 98 Z " /><path fill="rgb(181,93,99)" stroke="rgb(181,93,99)" stroke-width="1" opacity="1" d="M 179.5 107 L 180 114.5 L 179 114.5 L 179.5 107 Z " /><path fill="rgb(181,93,99)" stroke="rgb(181,93,99)" stroke-width="1" opacity="1" d="M 52.5 110 L 55.5 114 L 52.5 110 Z " /><path fill="rgb(181,93,99)" stroke="rgb(181,93,99)" stroke-width="1" opacity="1" d="M 79.5 113 L 76.5 117 L 79.5 113 Z " /><path fill="rgb(181,93,99)" stroke="rgb(181,93,99)" stroke-width="1" opacity="1" d="M 59.5 116 L 60.5 118 L 59.5 116 Z " /><path fill="rgb(181,93,99)" stroke="rgb(181,93,99)" stroke-width="1" opacity="1" d="M 73.5 118 L 71.5 121 L 73.5 118 Z " /><path fill="rgb(181,93,99)" stroke="rgb(181,93,99)" stroke-width="1" opacity="1" d="M 63.5 119 L 64.5 121 L 63.5 119 Z " /><path fill="rgb(181,93,99)" stroke="rgb(181,93,99)" stroke-width="1" opacity="1" d="M 177.5 119 L 176.5 121 L 177.5 119 Z " /><path fill="rgb(181,93,99)" stroke="rgb(181,93,99)" stroke-width="1" opacity="1" d="M 69.5 121 L 68.5 123 L 67 122.5 L 69.5 121 Z " /><path fill="rgb(181,93,99)" stroke="rgb(181,93,99)" stroke-width="1" opacity="1" d="M 139.5 121 L 143 121.5 L 139.5 122 L 139.5 121 Z " /><path fill="rgb(181,93,99)" stroke="rgb(181,93,99)" stroke-width="1" opacity="1" d="M 171.5 121 L 174 121.5 L 171.5 122 L 171.5 121 Z " /><path fill="rgb(181,93,99)" stroke="rgb(181,93,99)" stroke-width="1" opacity="1" d="M 35.5 137 L 36 145.5 L 35 145.5 L 35.5 137 Z " /><path fill="rgb(181,93,99)" stroke="rgb(181,93,99)" stroke-width="1" opacity="1" d="M 42.5 137 L 48 137.5 L 42.5 138 L 42.5 137 Z " /><path fill="rgb(181,93,99)" stroke="rgb(181,93,99)" stroke-width="1" opacity="1" d="M 65.5 137 L 72 137.5 L 65.5 138 L 65.5 137 Z " /><path fill="rgb(181,93,99)" stroke="rgb(181,93,99)" stroke-width="1" opacity="1" d="M 98.5 137 L 102 138.5 L 100.5 138 Q 97.5 138.5 98.5 137 Z " /><path fill="rgb(181,93,99)" stroke="rgb(181,93,99)" stroke-width="1" opacity="1" d="M 108.5 137 L 109 149.5 L 108 149.5 L 108.5 137 Z " /><path fill="rgb(181,93,99)" stroke="rgb(181,93,99)" stroke-width="1" opacity="1" d="M 111.5 137 L 112 149.5 L 111 149.5 L 111.5 137 Z " /><path fill="rgb(181,93,99)" stroke="rgb(181,93,99)" stroke-width="1" opacity="1" d="M 113.5 137 L 119 137.5 L 113.5 138 L 113.5 137 Z " /><path fill="rgb(181,93,99)" stroke="rgb(181,93,99)" stroke-width="1" opacity="1" d="M 152.5 137 L 154 139.5 L 152 138.5 L 152.5 137 Z " /><path fill="rgb(181,93,99)" stroke="rgb(181,93,99)" stroke-width="1" opacity="1" d="M 154.5 137 L 161 137.5 L 154.5 138 L 154.5 137 Z " /><path fill="rgb(181,93,99)" stroke="rgb(181,93,99)" stroke-width="1" opacity="1" d="M 162.5 137 L 163 138.5 L 160.5 140 L 160.5 139 Q 163 139.7 162.5 137 Z " /><path fill="rgb(181,93,99)" stroke="rgb(181,93,99)" stroke-width="1" opacity="1" d="M 166.5 137 L 167 145.5 L 166 145.5 L 166.5 137 Z " /><path fill="rgb(181,93,99)" stroke="rgb(181,93,99)" stroke-width="1" opacity="1" d="M 177.5 137 L 185 137.5 L 177.5 138 L 177.5 137 Z " /><path fill="rgb(181,93,99)" stroke="rgb(181,93,99)" stroke-width="1" opacity="1" d="M 136.5 138 L 137 149.5 L 136 149.5 L 136.5 138 Z " /><path fill="rgb(181,93,99)" stroke="rgb(181,93,99)" stroke-width="1" opacity="1" d="M 179.5 139 L 180 141.5 L 179 141.5 L 179.5 139 Z " /><path fill="rgb(181,93,99)" stroke="rgb(181,93,99)" stroke-width="1" opacity="1" d="M 183.5 139 L 185 141.5 L 184 141.5 L 183.5 139 Z " /><path fill="rgb(181,93,99)" stroke="rgb(181,93,99)" stroke-width="1" opacity="1" d="M 55 140 L 57 140.5 L 55 141.5 L 55 140 Z " /><path fill="rgb(181,93,99)" stroke="rgb(181,93,99)" stroke-width="1" opacity="1" d="M 128.5 140 L 129.5 142 L 128.5 140 Z " /><path fill="rgb(181,93,99)" stroke="rgb(181,93,99)" stroke-width="1" opacity="1" d="M 146.5 140 L 147.5 142 L 146.5 140 Z " /><path fill="rgb(181,93,99)" stroke="rgb(181,93,99)" stroke-width="1" opacity="1" d="M 73.5 142 L 73 143.5 L 72.5 145 L 72 143.5 L 73.5 142 Z " /><path fill="rgb(181,93,99)" stroke="rgb(181,93,99)" stroke-width="1" opacity="1" d="M 100 142 L 102 142.5 L 100.5 150 L 100 142 Z " /><path fill="rgb(181,93,99)" stroke="rgb(181,93,99)" stroke-width="1" opacity="1" d="M 119.5 142 L 120 145.5 L 119 145.5 L 119.5 142 Z " /><path fill="rgb(181,93,99)" stroke="rgb(181,93,99)" stroke-width="1" opacity="1" d="M 54.5 144 L 57 145.5 L 55.5 146 L 54.5 144 Z " /><path fill="rgb(181,93,99)" stroke="rgb(181,93,99)" stroke-width="1" opacity="1" d="M 130.5 144 L 129.5 146 L 128 145.5 L 130.5 144 Z " /><path fill="rgb(181,93,99)" stroke="rgb(181,93,99)" stroke-width="1" opacity="1" d="M 148.5 144 L 147.5 146 L 145 145.5 L 148.5 144 Z " /><path fill="rgb(181,93,99)" stroke="rgb(181,93,99)" stroke-width="1" opacity="1" d="M 179.5 144 L 180 147.5 L 179 147.5 L 179.5 144 Z " /><path fill="rgb(181,93,99)" stroke="rgb(181,93,99)" stroke-width="1" opacity="1" d="M 73.5 146 L 74 148.5 L 73 148.5 L 73.5 146 Z " /><path fill="rgb(181,93,99)" stroke="rgb(181,93,99)" stroke-width="1" opacity="1" d="M 28.5 148 L 29.5 150 L 28.5 148 Z " /><path fill="rgb(181,93,99)" stroke="rgb(181,93,99)" stroke-width="1" opacity="1" d="M 173.5 148 L 172.5 150 L 173.5 148 Z " /><path fill="rgb(181,93,99)" stroke="rgb(181,93,99)" stroke-width="1" opacity="1" d="M 39 158 L 41 158 L 41 164 L 39 164 L 39 158 Z " /><path fill="rgb(181,93,99)" stroke="rgb(181,93,99)" stroke-width="1" opacity="1" d="M 62.5 158 L 66 160 L 65.5 162 L 63 160.5 L 64 164 L 62 164 L 62.5 158 Z " /><path fill="rgb(181,93,99)" stroke="rgb(181,93,99)" stroke-width="1" opacity="1" d="M 104.5 158 L 105.5 160 L 104.5 158 Z " /><path fill="rgb(181,93,99)" stroke="rgb(181,93,99)" stroke-width="1" opacity="1" d="M 111.5 158 Q 113.8 158.8 113 162.5 L 111 163.5 L 111.5 158 Z " /><path fill="rgb(181,93,99)" stroke="rgb(181,93,99)" stroke-width="1" opacity="1" d="M 144 158 L 146 158 L 146 164 L 144 164 L 144 158 Z " /><path fill="rgb(181,93,99)" stroke="rgb(181,93,99)" stroke-width="1" opacity="1" d="M 155.5 158 L 156.5 160 L 155.5 158 Z " /><path fill="rgb(181,93,99)" stroke="rgb(181,93,99)" stroke-width="1" opacity="1" d="M 164.5 158 L 163.5 160 L 162 159.5 L 164.5 158 Z " /><path fill="rgb(181,93,99)" stroke="rgb(181,93,99)" stroke-width="1" opacity="1" d="M 166.5 158 L 167 159.5 L 165.5 162 L 165 160.5 L 166.5 158 Z " /><path fill="rgb(181,93,99)" stroke="rgb(181,93,99)" stroke-width="1" opacity="1" d="M 195.5 158 L 196 160.5 L 194 161.5 L 195.5 158 Z " /><path fill="rgb(181,93,99)" stroke="rgb(181,93,99)" stroke-width="1" opacity="1" d="M 44.5 159 L 46 159.5 L 44 160 L 45 162.5 L 42.5 164 L 43 162.5 L 42 160.5 L 44.5 159 Z " /><path fill="rgb(181,93,99)" stroke="rgb(181,93,99)" stroke-width="1" opacity="1" d="M 76 159 L 78 159 L 78 164 L 76 164 L 76 159 Z " /><path fill="rgb(181,93,99)" stroke="rgb(181,93,99)" stroke-width="1" opacity="1" d="M 175.5 159 L 176 162 Q 173.3 163.1 174 160.5 L 175.5 159 Z " /><path fill="rgb(181,93,99)" stroke="rgb(181,93,99)" stroke-width="1" opacity="1" d="M 188.5 159 L 190 159.5 L 188 160 L 187.5 162 L 186.5 160 L 188.5 159 Z " /><path fill="rgb(181,93,99)" stroke="rgb(181,93,99)" stroke-width="1" opacity="1" d="M 197.5 159 L 201 160.5 L 200 163 L 202 163.5 L 200.5 164 L 198 162.5 L 199 160 L 197.5 159 Z " /><path fill="rgb(181,93,99)" stroke="rgb(181,93,99)" stroke-width="1" opacity="1" d="M 58 160 Q 61 159 60 162 Q 57 163 58 160 Z " /><path fill="rgb(181,93,99)" stroke="rgb(181,93,99)" stroke-width="1" opacity="1" d="M 90 160 Q 93 159 92 162 Q 89 163 90 160 Z " /><path fill="rgb(181,93,99)" stroke="rgb(181,93,99)" stroke-width="1" opacity="1" d="M 97.5 160 Q 103.3 158.3 102 162 L 99.5 161 Q 97.7 163.5 97.5 160 Z " /><path fill="rgb(181,93,99)" stroke="rgb(181,93,99)" stroke-width="1" opacity="1" d="M 117 160 Q 120 159 119 162 Q 116 163 117 160 Z " /><path fill="rgb(181,93,99)" stroke="rgb(181,93,99)" stroke-width="1" opacity="1" d="M 148.5 160 L 150.5 160 L 152 160.5 L 149.5 162 L 148.5 160 Z " /><path fill="rgb(181,93,99)" stroke="rgb(181,93,99)" stroke-width="1" opacity="1" d="M 103.5 161 L 106.5 162 L 108 161.5 L 104.5 163 L 103.5 161 Z " /><path fill="rgb(181,93,99)" stroke="rgb(181,93,99)" stroke-width="1" opacity="1" d="M 132.5 161 L 135.5 162 L 137 161.5 L 133.5 163 L 132.5 161 Z " /><path fill="rgb(181,93,99)" stroke="rgb(181,93,99)" stroke-width="1" opacity="1" d="M 154.5 161 L 157.5 162 L 159 161.5 L 155.5 163 L 154.5 161 Z " /><path fill="rgb(181,93,99)" stroke="rgb(181,93,99)" stroke-width="1" opacity="1" d="M 30 162 L 32 162.5 L 30 163.5 L 30 162 Z " /><path fill="rgb(181,93,99)" stroke="rgb(181,93,99)" stroke-width="1" opacity="1" d="M 73.5 162 L 72.5 164 L 73.5 162 Z " /><path fill="rgb(181,93,99)" stroke="rgb(181,93,99)" stroke-width="1" opacity="1" d="M 81.5 162 L 80.5 164 L 81.5 162 Z " /><path fill="rgb(181,93,99)" stroke="rgb(181,93,99)" stroke-width="1" opacity="1" d="M 162.5 162 L 163.5 164 L 162.5 162 Z " /><path fill="rgb(229,32,42)" stroke="rgb(229,32,42)" stroke-width="1" opacity="1" d="M 88.5 53 Q 98.1 53.4 102 59.5 L 105 67.5 L 105 75.5 L 100 90.5 Q 91.9 103.4 80.5 113 L 70.5 121 L 66.5 122 L 44 102.5 Q 36 95 32 83.5 L 30 74.5 L 30 67.5 L 34 58 L 41.5 54 L 49.5 54 Q 57.6 56.4 62 62.5 L 66 70 Q 69.8 71.5 69 68.5 L 78.5 57 L 88.5 53 Z " /><path fill="rgb(32,34,41)" stroke="rgb(32,34,41)" stroke-width="1" opacity="1" d="M 139.5 55 L 145.5 55 L 150 58.5 Q 155.3 63.2 154 74.5 L 149.5 80 L 144.5 80 L 138 74.5 L 135 66.5 L 135 61.5 L 139.5 55 Z " /><path fill="rgb(32,34,41)" stroke="rgb(32,34,41)" stroke-width="1" opacity="1" d="M 166.5 55 Q 173 54 175 57.5 Q 178.2 60.8 177 68.5 L 171.5 78 Q 169.2 80.7 163.5 80 L 160 77.5 Q 156.7 73.8 158 65.5 Q 159.5 59 164.5 56 L 166.5 55 Z " /><path fill="rgb(32,34,41)" stroke="rgb(32,34,41)" stroke-width="1" opacity="1" d="M 122.5 73 Q 129 74.5 132 79.5 L 134 83.5 L 135 90.5 L 131.5 98 L 125.5 99 L 118 92.5 Q 114.7 87.8 116 78.5 L 119.5 74 L 122.5 73 Z " /><path fill="rgb(32,34,41)" stroke="rgb(32,34,41)" stroke-width="1" opacity="1" d="M 187.5 74 Q 194.8 72.8 196 77.5 Q 198.5 81 197 88.5 L 190.5 98 L 183.5 99 L 179 94.5 L 179 83.5 L 185.5 75 L 187.5 74 Z " /><path fill="rgb(32,34,41)" stroke="rgb(32,34,41)" stroke-width="1" opacity="1" d="M 154.5 82 Q 168.1 83.4 174 92.5 Q 181.2 100.3 179 117.5 Q 177.3 122.8 168.5 121 Q 163.4 116.6 152.5 118 L 144.5 121 L 137.5 121 L 134 116.5 L 134 104.5 Q 136.8 93.3 144.5 87 L 154.5 82 Z " /><path fill="rgb(32,34,41)" stroke="rgb(32,34,41)" stroke-width="1" opacity="1" d="M 28 137 L 30 137.5 L 30 146.5 Q 31.2 149 35 148 Q 37 144.6 36.5 137 L 38 138.5 L 38 146.5 L 35.5 150 Q 29.3 151.3 28 147.5 L 28 137 Z " /><path fill="rgb(32,34,41)" stroke="rgb(32,34,41)" stroke-width="1" opacity="1" d="M 41.5 137 Q 43 139.5 48.5 138 L 50 139.5 Q 51 144 48.5 145 L 43 145 L 43 150 L 41 150 L 41.5 137 Z M 43 139 L 43 143 L 48 143 L 48 141 Q 47 138 43 139 Z " /><path fill="rgb(32,34,41)" stroke="rgb(32,34,41)" stroke-width="1" opacity="1" d="M 55.5 137 L 58 138 L 62 149.5 L 60.5 150 L 59 147 L 53 147 Q 54.7 151.1 50.5 150 L 51 148.5 L 55.5 137 Z M 55 140 L 55 144 Q 53 145 56 146 L 58 145 L 57 143 Q 58 139 55 140 Z " /><path fill="rgb(32,34,41)" stroke="rgb(32,34,41)" stroke-width="1" opacity="1" d="M 64.5 137 L 65.5 138 L 73 138 L 74 141.5 L 72 144.5 L 74 149.5 L 71 150 Q 73.5 142.5 66 145 L 66 150 L 64 150 L 64.5 137 Z M 66 139 Q 64 145 71 143 Q 73 142 71 141 L 71 139 L 66 139 Z " /><path fill="rgb(32,34,41)" stroke="rgb(32,34,41)" stroke-width="1" opacity="1" d="M 93 137 L 95 137.5 L 95 150 L 93 149.5 L 93 137 Z " /><path fill="rgb(32,34,41)" stroke="rgb(32,34,41)" stroke-width="1" opacity="1" d="M 107.5 137 L 108 150 L 105 148.5 L 102 142 L 100 142 L 100 149.5 L 98 150 L 98 138.5 L 100.5 138 L 105.5 146 L 106 138.5 L 107.5 137 Z " /><path fill="rgb(32,34,41)" stroke="rgb(32,34,41)" stroke-width="1" opacity="1" d="M 112.5 137 Q 114 139.5 119.5 138 L 121 139.5 L 122 145.5 L 119.5 149 L 112 150 L 112.5 137 Z M 114 139 L 114 148 Q 119 149 120 146 L 119 141 Q 118 138 114 139 Z " /><path fill="rgb(32,34,41)" stroke="rgb(32,34,41)" stroke-width="1" opacity="1" d="M 129.5 137 L 135 149.5 L 132 150 L 132 147 L 126 147 L 124.5 150 L 123 149.5 L 127 138 L 129.5 137 Z M 129 140 L 127 144 L 129 146 L 131 145 L 129 140 Z " /><path fill="rgb(32,34,41)" stroke="rgb(32,34,41)" stroke-width="1" opacity="1" d="M 137 137 L 139 137.5 L 139 150 L 137 149.5 L 137 137 Z " /><path fill="rgb(32,34,41)" stroke="rgb(32,34,41)" stroke-width="1" opacity="1" d="M 147.5 137 L 152 150 Q 149.3 151.1 150 148.5 Q 148.6 145.8 144 147 L 142.5 150 Q 140.3 150.8 141 148.5 L 145 138 L 147.5 137 Z M 147 140 L 145 146 L 149 145 L 147 140 Z " /><path fill="rgb(32,34,41)" stroke="rgb(32,34,41)" stroke-width="1" opacity="1" d="M 153.5 137 Q 155 139.5 160.5 138 L 162 137.5 L 162 139 L 159 139.5 L 159 150 L 156 150 L 156 139.5 L 153 139 L 153.5 137 Z " /><path fill="rgb(32,34,41)" stroke="rgb(32,34,41)" stroke-width="1" opacity="1" d="M 165.5 137 Q 165 144.6 167 148 Q 170.8 149 172 146.5 L 172 137.5 L 174 137 L 174 147.5 L 171.5 150 Q 166.3 151.3 165 148.5 Q 162.7 145.3 164 138.5 L 165.5 137 Z " /><path fill="rgb(32,34,41)" stroke="rgb(32,34,41)" stroke-width="1" opacity="1" d="M 193.5 137 L 196 138 L 200 150 Q 197.3 151.1 198 148.5 Q 197 146 192.5 147 L 191 150 Q 188 151.3 189 147.5 L 193.5 137 Z M 195 140 Q 192 141 193 146 L 196 146 L 195 140 Z " /><path fill="rgb(32,34,41)" stroke="rgb(32,34,41)" stroke-width="1" opacity="1" d="M 177 138 L 185.5 138 L 187 139.5 L 186 143.5 L 187 149 Q 183.9 151 177 150 L 177 138 Z M 179 139 L 179 142 L 185 142 L 185 141 Q 184 138 179 139 Z M 179 144 Q 177 150 184 148 L 185 146 Q 184 143 179 144 Z " /><path fill="rgb(32,34,41)" stroke="rgb(32,34,41)" stroke-width="1" opacity="1" d="M 81 144 Q 86.2 142.3 85 146 Q 79.8 147.7 81 144 Z " /><path fill="rgb(32,34,41)" stroke="rgb(32,34,41)" stroke-width="1" opacity="1" d="M 27.5 158 L 28 163 L 30 163.5 L 28.5 164 Q 25.6 162.6 27.5 158 Z " /><path fill="rgb(32,34,41)" stroke="rgb(32,34,41)" stroke-width="1" opacity="1" d="M 31.5 158 L 32 161.5 L 31 161.5 L 31.5 158 Z " /><path fill="rgb(32,34,41)" stroke="rgb(32,34,41)" stroke-width="1" opacity="1" d="M 33 158 Q 35.7 156.9 35 159.5 L 35.5 161 L 34 160.5 L 33.5 164 L 33 158 Z " /><path fill="rgb(32,34,41)" stroke="rgb(32,34,41)" stroke-width="1" opacity="1" d="M 37.5 158 L 38 163.5 L 36 162.5 L 37.5 158 Z " /><path fill="rgb(32,34,41)" stroke="rgb(32,34,41)" stroke-width="1" opacity="1" d="M 43 158 L 45 158.5 L 43 159.5 L 43 158 Z " /><path fill="rgb(32,34,41)" stroke="rgb(32,34,41)" stroke-width="1" opacity="1" d="M 49.5 158 L 48.5 160 L 49.5 158 Z " /><path fill="rgb(32,34,41)" stroke="rgb(32,34,41)" stroke-width="1" opacity="1" d="M 51.5 158 Q 53.8 158.8 53 162.5 L 49.5 164 L 48 161.5 L 49 161.5 Q 48.2 164.5 52 163 L 51.5 158 Z " /><path fill="rgb(32,34,41)" stroke="rgb(32,34,41)" stroke-width="1" opacity="1" d="M 57 158 Q 62.2 155.9 61 160.5 L 60 160.5 Q 60.7 157.9 58 159 L 57.5 164 L 57 158 Z " /><path fill="rgb(32,34,41)" stroke="rgb(32,34,41)" stroke-width="1" opacity="1" d="M 63.5 158 Q 69.6 156.2 67 163.5 L 66 163.5 Q 68.1 157.7 63.5 159 L 63.5 158 Z " /><path fill="rgb(32,34,41)" stroke="rgb(32,34,41)" stroke-width="1" opacity="1" d="M 69.5 158 Q 73.3 157.3 74 159.5 Q 74.5 163.5 71.5 164 L 68 161.5 L 68.5 160 L 70.5 163 L 73 161.5 Q 74.3 157.3 69.5 159 L 69.5 158 Z " /><path fill="rgb(32,34,41)" stroke="rgb(32,34,41)" stroke-width="1" opacity="1" d="M 75.5 158 L 79 158.5 L 75.5 159 L 75.5 158 Z " /><path fill="rgb(32,34,41)" stroke="rgb(32,34,41)" stroke-width="1" opacity="1" d="M 80 158 L 84 158.5 L 81 159.5 L 84 160.5 L 81 161 Q 79.8 164 83.5 163 L 83.5 164 L 80 162.5 L 80 158 Z " /><path fill="rgb(32,34,41)" stroke="rgb(32,34,41)" stroke-width="1" opacity="1" d="M 85.5 158 L 90 158.5 L 88 159 L 87.5 164 L 87 159 L 85.5 158 Z " /><path fill="rgb(32,34,41)" stroke="rgb(32,34,41)" stroke-width="1" opacity="1" d="M 92.5 158 L 91.5 160 L 92.5 158 Z " /><path fill="rgb(32,34,41)" stroke="rgb(32,34,41)" stroke-width="1" opacity="1" d="M 94.5 158 Q 96.8 158.8 96 162.5 L 95 162.5 L 94.5 158 Z " /><path fill="rgb(32,34,41)" stroke="rgb(32,34,41)" stroke-width="1" opacity="1" d="M 97 158 L 102 158 L 102 159.5 L 100.5 159 L 97.5 160 L 97 158 Z " /><path fill="rgb(32,34,41)" stroke="rgb(32,34,41)" stroke-width="1" opacity="1" d="M 105.5 158 L 108 163.5 L 107 163.5 L 105.5 159 L 103.5 164 L 103 162.5 L 105.5 158 Z " /><path fill="rgb(32,34,41)" stroke="rgb(32,34,41)" stroke-width="1" opacity="1" d="M 112.5 158 L 116 159.5 L 114.5 159 Q 111.5 159.5 112.5 158 Z " /><path fill="rgb(32,34,41)" stroke="rgb(32,34,41)" stroke-width="1" opacity="1" d="M 119.5 158 L 118.5 160 L 119.5 158 Z " /><path fill="rgb(32,34,41)" stroke="rgb(32,34,41)" stroke-width="1" opacity="1" d="M 121.5 158 Q 123.8 158.8 123 162.5 L 122 162.5 L 121.5 158 Z " /><path fill="rgb(32,34,41)" stroke="rgb(32,34,41)" stroke-width="1" opacity="1" d="M 125.5 158 L 125.5 160 L 129 161 L 127.5 164 L 124 162.5 L 125.5 163 L 128 162.5 L 124 159.5 L 125.5 158 Z " /><path fill="rgb(32,34,41)" stroke="rgb(32,34,41)" stroke-width="1" opacity="1" d="M 134.5 158 L 137 163.5 L 136 163.5 L 134.5 159 L 132.5 164 L 132 162.5 L 134.5 158 Z " /><path fill="rgb(32,34,41)" stroke="rgb(32,34,41)" stroke-width="1" opacity="1" d="M 138.5 158 L 140.5 161 L 139 160.5 L 138.5 164 L 138.5 158 Z " /><path fill="rgb(32,34,41)" stroke="rgb(32,34,41)" stroke-width="1" opacity="1" d="M 142.5 158 L 143 163.5 L 141 162.5 L 142.5 158 Z " /><path fill="rgb(32,34,41)" stroke="rgb(32,34,41)" stroke-width="1" opacity="1" d="M 147 158 Q 149.7 156.9 149 159.5 L 147.5 164 L 147 158 Z " /><path fill="rgb(32,34,41)" stroke="rgb(32,34,41)" stroke-width="1" opacity="1" d="M 151 158 Q 155 156.6 153 163.5 L 152 163.5 L 151 158 Z " /><path fill="rgb(32,34,41)" stroke="rgb(32,34,41)" stroke-width="1" opacity="1" d="M 156.5 158 L 159 163.5 L 158 163.5 L 156.5 159 L 154.5 164 L 154 162.5 L 156.5 158 Z " /><path fill="rgb(32,34,41)" stroke="rgb(32,34,41)" stroke-width="1" opacity="1" d="M 160.5 158 L 161 163.5 L 160 163.5 L 160.5 158 Z " /><path fill="rgb(32,34,41)" stroke="rgb(32,34,41)" stroke-width="1" opacity="1" d="M 171 158 L 175 158 L 175 159.5 L 173.5 159 L 172 159 L 172 163 L 174.5 162 L 173.5 164 L 171 164 L 171 158 Z " /><path fill="rgb(32,34,41)" stroke="rgb(32,34,41)" stroke-width="1" opacity="1" d="M 177 158 L 181 158.5 L 178 159.5 L 181 160.5 L 178 161 Q 176.8 164 180.5 163 L 180.5 164 L 177 164 L 177 158 Z " /><path fill="rgb(32,34,41)" stroke="rgb(32,34,41)" stroke-width="1" opacity="1" d="M 185 158 L 189 158.5 L 186 159 L 185.5 164 L 185 158 Z " /><path fill="rgb(32,34,41)" stroke="rgb(32,34,41)" stroke-width="1" opacity="1" d="M 191.5 158 L 192 163 L 194.5 162 L 193.5 164 L 191 162.5 L 191.5 158 Z " /><path fill="rgb(32,34,41)" stroke="rgb(32,34,41)" stroke-width="1" opacity="1" d="M 198.5 158 Q 200.8 157.3 200 159.5 L 198.5 158 Z " /><path fill="rgb(32,34,41)" stroke="rgb(32,34,41)" stroke-width="1" opacity="1" d="M 45.5 160 L 47 163.5 L 45 162.5 L 45.5 160 Z " /><path fill="rgb(32,34,41)" stroke="rgb(32,34,41)" stroke-width="1" opacity="1" d="M 188.5 160 L 189 162.5 L 188 162.5 L 188.5 160 Z " /><path fill="rgb(32,34,41)" stroke="rgb(32,34,41)" stroke-width="1" opacity="1" d="M 197.5 160 L 198 162.5 L 196 163.5 L 197.5 160 Z " /><path fill="rgb(32,34,41)" stroke="rgb(32,34,41)" stroke-width="1" opacity="1" d="M 115.5 161 L 116 162.5 L 112.5 164 L 112.5 163 Q 116 164 115.5 161 Z " /><path fill="rgb(32,34,41)" stroke="rgb(32,34,41)" stroke-width="1" opacity="1" d="M 150.5 161 L 151 163 L 149 162.5 L 150.5 161 Z " /><path fill="rgb(32,34,41)" stroke="rgb(32,34,41)" stroke-width="1" opacity="1" d="M 166.5 161 L 167 162.5 L 164.5 164 L 163.5 162 L 166 163 L 166.5 161 Z " /><path fill="rgb(32,34,41)" stroke="rgb(32,34,41)" stroke-width="1" opacity="1" d="M 91.5 162 L 94 163.5 L 92.5 164 L 91.5 162 Z " /><path fill="rgb(32,34,41)" stroke="rgb(32,34,41)" stroke-width="1" opacity="1" d="M 118.5 162 L 121 163.5 L 119.5 164 L 118.5 162 Z " /><path fill="rgb(204,199,200)" stroke="rgb(204,199,200)" stroke-width="1" opacity="1" d="M 167.5 54 L 171 54.5 L 167.5 55 L 167.5 54 Z " /><path fill="rgb(204,199,200)" stroke="rgb(204,199,200)" stroke-width="1" opacity="1" d="M 98.5 55 L 101.5 59 L 98.5 55 Z " /><path fill="rgb(204,199,200)" stroke="rgb(204,199,200)" stroke-width="1" opacity="1" d="M 35.5 56 L 34.5 58 L 35.5 56 Z " /><path fill="rgb(204,199,200)" stroke="rgb(204,199,200)" stroke-width="1" opacity="1" d="M 77.5 57 L 76.5 59 L 77.5 57 Z " /><path fill="rgb(204,199,200)" stroke="rgb(204,199,200)" stroke-width="1" opacity="1" d="M 58.5 58 L 62.5 63 L 58.5 58 Z " /><path fill="rgb(204,199,200)" stroke="rgb(204,199,200)" stroke-width="1" opacity="1" d="M 177.5 62 L 178 67.5 L 177 67.5 L 177.5 62 Z " /><path fill="rgb(204,199,200)" stroke="rgb(204,199,200)" stroke-width="1" opacity="1" d="M 64.5 65 L 65.5 67 L 64.5 65 Z " /><path fill="rgb(204,199,200)" stroke="rgb(204,199,200)" stroke-width="1" opacity="1" d="M 66.5 68 L 69 68.5 Q 66.9 71.8 66.5 68 Z " /><path fill="rgb(204,199,200)" stroke="rgb(204,199,200)" stroke-width="1" opacity="1" d="M 105.5 68 L 106 73.5 L 105 73.5 L 105.5 68 Z " /><path fill="rgb(204,199,200)" stroke="rgb(204,199,200)" stroke-width="1" opacity="1" d="M 154.5 68 L 155 72.5 L 154 72.5 L 154.5 68 Z " /><path fill="rgb(204,199,200)" stroke="rgb(204,199,200)" stroke-width="1" opacity="1" d="M 29.5 69 L 30 73.5 L 29 73.5 L 29.5 69 Z " /><path fill="rgb(204,199,200)" stroke="rgb(204,199,200)" stroke-width="1" opacity="1" d="M 188.5 73 L 191 73.5 L 188.5 74 L 188.5 73 Z " /><path fill="rgb(204,199,200)" stroke="rgb(204,199,200)" stroke-width="1" opacity="1" d="M 118.5 74 L 117.5 76 L 118.5 74 Z " /><path fill="rgb(204,199,200)" stroke="rgb(204,199,200)" stroke-width="1" opacity="1" d="M 127.5 74 L 131.5 79 L 127.5 74 Z " /><path fill="rgb(204,199,200)" stroke="rgb(204,199,200)" stroke-width="1" opacity="1" d="M 193.5 74 L 195.5 77 L 193.5 74 Z " /><path fill="rgb(204,199,200)" stroke="rgb(204,199,200)" stroke-width="1" opacity="1" d="M 138.5 75 L 141.5 79 L 138.5 75 Z " /><path fill="rgb(204,199,200)" stroke="rgb(204,199,200)" stroke-width="1" opacity="1" d="M 184.5 75 L 181.5 79 L 184.5 75 Z " /><path fill="rgb(204,199,200)" stroke="rgb(204,199,200)" stroke-width="1" opacity="1" d="M 145.5 80 L 149 80.5 L 145.5 81 L 145.5 80 Z " /><path fill="rgb(204,199,200)" stroke="rgb(204,199,200)" stroke-width="1" opacity="1" d="M 197.5 81 L 198 86.5 L 197 86.5 L 197.5 81 Z " /><path fill="rgb(204,199,200)" stroke="rgb(204,199,200)" stroke-width="1" opacity="1" d="M 169.5 87 L 173.5 92 L 169.5 87 Z " /><path fill="rgb(204,199,200)" stroke="rgb(204,199,200)" stroke-width="1" opacity="1" d="M 142.5 88 L 140.5 91 L 142.5 88 Z " /><path fill="rgb(204,199,200)" stroke="rgb(204,199,200)" stroke-width="1" opacity="1" d="M 193.5 95 L 192.5 97 L 193.5 95 Z " /><path fill="rgb(204,199,200)" stroke="rgb(204,199,200)" stroke-width="1" opacity="1" d="M 38.5 96 L 39.5 98 L 38.5 96 Z " /><path fill="rgb(204,199,200)" stroke="rgb(204,199,200)" stroke-width="1" opacity="1" d="M 96.5 96 L 95.5 98 L 96.5 96 Z " /><path fill="rgb(204,199,200)" stroke="rgb(204,199,200)" stroke-width="1" opacity="1" d="M 126.5 99 L 129 99.5 L 126.5 100 L 126.5 99 Z " /><path fill="rgb(204,199,200)" stroke="rgb(204,199,200)" stroke-width="1" opacity="1" d="M 184.5 99 L 188 99.5 L 184.5 100 L 184.5 99 Z " /><path fill="rgb(204,199,200)" stroke="rgb(204,199,200)" stroke-width="1" opacity="1" d="M 93.5 100 L 88.5 106 L 93.5 100 Z " /><path fill="rgb(204,199,200)" stroke="rgb(204,199,200)" stroke-width="1" opacity="1" d="M 42.5 101 L 51.5 111 L 42.5 101 Z " /><path fill="rgb(204,199,200)" stroke="rgb(204,199,200)" stroke-width="1" opacity="1" d="M 133.5 107 L 134 114.5 L 133 114.5 L 133.5 107 Z " /><path fill="rgb(204,199,200)" stroke="rgb(204,199,200)" stroke-width="1" opacity="1" d="M 84.5 109 L 80.5 114 L 84.5 109 Z " /><path fill="rgb(204,199,200)" stroke="rgb(204,199,200)" stroke-width="1" opacity="1" d="M 56.5 114 L 58.5 117 L 56.5 114 Z " /><path fill="rgb(204,199,200)" stroke="rgb(204,199,200)" stroke-width="1" opacity="1" d="M 75.5 117 L 74.5 119 L 75.5 117 Z " /><path fill="rgb(204,199,200)" stroke="rgb(204,199,200)" stroke-width="1" opacity="1" d="M 61.5 118 L 62.5 120 L 61.5 118 Z " /><path fill="rgb(204,199,200)" stroke="rgb(204,199,200)" stroke-width="1" opacity="1" d="M 154.5 118 L 160 118.5 L 154.5 119 L 154.5 118 Z " /><path fill="rgb(204,199,200)" stroke="rgb(204,199,200)" stroke-width="1" opacity="1" d="M 135.5 119 L 136.5 121 L 135.5 119 Z " /><path fill="rgb(204,199,200)" stroke="rgb(204,199,200)" stroke-width="1" opacity="1" d="M 65.5 121 L 66.5 123 L 65.5 121 Z " /><path fill="rgb(204,199,200)" stroke="rgb(204,199,200)" stroke-width="1" opacity="1" d="M 27.5 137 L 28 146.5 L 27 146.5 L 27.5 137 Z " /><path fill="rgb(204,199,200)" stroke="rgb(204,199,200)" stroke-width="1" opacity="1" d="M 30.5 137 L 31 146.5 L 32 147.5 L 30 146.5 L 30.5 137 Z " /><path fill="rgb(204,199,200)" stroke="rgb(204,199,200)" stroke-width="1" opacity="1" d="M 40.5 137 L 41 149.5 L 40 149.5 L 40.5 137 Z " /><path fill="rgb(204,199,200)" stroke="rgb(204,199,200)" stroke-width="1" opacity="1" d="M 63.5 137 L 64 149.5 L 63 149.5 L 63.5 137 Z " /><path fill="rgb(204,199,200)" stroke="rgb(204,199,200)" stroke-width="1" opacity="1" d="M 72.5 137 L 73.5 139 L 72.5 137 Z " /><path fill="rgb(204,199,200)" stroke="rgb(204,199,200)" stroke-width="1" opacity="1" d="M 92.5 137 L 93 149.5 L 92 149.5 L 92.5 137 Z " /><path fill="rgb(204,199,200)" stroke="rgb(204,199,200)" stroke-width="1" opacity="1" d="M 95.5 137 L 96 149.5 L 95 149.5 L 95.5 137 Z " /><path fill="rgb(204,199,200)" stroke="rgb(204,199,200)" stroke-width="1" opacity="1" d="M 119.5 137 L 121.5 140 L 119.5 137 Z " /><path fill="rgb(204,199,200)" stroke="rgb(204,199,200)" stroke-width="1" opacity="1" d="M 171.5 137 L 172 146.5 L 170 147.5 L 171 146.5 L 171.5 137 Z " /><path fill="rgb(204,199,200)" stroke="rgb(204,199,200)" stroke-width="1" opacity="1" d="M 174.5 137 L 175 146.5 L 174 146.5 L 174.5 137 Z " /><path fill="rgb(204,199,200)" stroke="rgb(204,199,200)" stroke-width="1" opacity="1" d="M 44.5 139 L 48 140.5 L 47.5 142 L 47 140 Q 42.9 138.3 44 142.5 L 43 142.5 L 44.5 139 Z " /><path fill="rgb(204,199,200)" stroke="rgb(204,199,200)" stroke-width="1" opacity="1" d="M 67.5 139 L 70 139.5 L 67 140 Q 65.7 143.3 70.5 142 L 70.5 143 Q 64.7 145.1 66 140.5 L 67.5 139 Z " /><path fill="rgb(204,199,200)" stroke="rgb(204,199,200)" stroke-width="1" opacity="1" d="M 180.5 139 L 183 139.5 L 180.5 140 L 180.5 139 Z " /><path fill="rgb(204,199,200)" stroke="rgb(204,199,200)" stroke-width="1" opacity="1" d="M 50.5 140 L 51 142.5 L 50 142.5 L 50.5 140 Z " /><path fill="rgb(204,199,200)" stroke="rgb(204,199,200)" stroke-width="1" opacity="1" d="M 56.5 141 L 55.5 143 L 56.5 141 Z " /><path fill="rgb(204,199,200)" stroke="rgb(204,199,200)" stroke-width="1" opacity="1" d="M 128.5 141 L 129.5 143 L 128.5 141 Z " /><path fill="rgb(204,199,200)" stroke="rgb(204,199,200)" stroke-width="1" opacity="1" d="M 186.5 142 L 188 144.5 L 186 143.5 L 186.5 142 Z " /><path fill="rgb(204,199,200)" stroke="rgb(204,199,200)" stroke-width="1" opacity="1" d="M 80.5 144 L 81 146 L 86 146.5 L 80 147 L 80.5 144 Z " /><path fill="rgb(204,199,200)" stroke="rgb(204,199,200)" stroke-width="1" opacity="1" d="M 180.5 144 Q 184.3 143.3 185 145.5 L 183.5 148 L 180 147.5 L 184 147 Q 185.3 143.7 180.5 145 L 180.5 144 Z " /><path fill="rgb(204,199,200)" stroke="rgb(204,199,200)" stroke-width="1" opacity="1" d="M 44.5 145 L 48 145.5 L 44 146 L 43.5 150 L 43 146.5 L 44.5 145 Z " /><path fill="rgb(204,199,200)" stroke="rgb(204,199,200)" stroke-width="1" opacity="1" d="M 66.5 145 L 67 149.5 L 66 149.5 L 66.5 145 Z " /><path fill="rgb(204,199,200)" stroke="rgb(204,199,200)" stroke-width="1" opacity="1" d="M 118.5 146 L 117.5 148 L 114 147.5 L 118.5 146 Z " /><path fill="rgb(204,199,200)" stroke="rgb(204,199,200)" stroke-width="1" opacity="1" d="M 54.5 147 L 58 147.5 L 53.5 149 L 54.5 147 Z " /><path fill="rgb(204,199,200)" stroke="rgb(204,199,200)" stroke-width="1" opacity="1" d="M 127.5 147 Q 131.3 146.3 132 148.5 L 130.5 148 Q 126.5 148.8 127.5 147 Z " /><path fill="rgb(204,199,200)" stroke="rgb(204,199,200)" stroke-width="1" opacity="1" d="M 144.5 147 Q 149 146 150 148.5 L 149.5 150 L 149 148 L 144.5 148 L 144.5 147 Z " /><path fill="rgb(204,199,200)" stroke="rgb(204,199,200)" stroke-width="1" opacity="1" d="M 187.5 147 L 188.5 149 L 187.5 147 Z " /><path fill="rgb(204,199,200)" stroke="rgb(204,199,200)" stroke-width="1" opacity="1" d="M 192.5 147 L 197 147.5 L 192.5 148 L 192.5 147 Z " /><path fill="rgb(204,199,200)" stroke="rgb(204,199,200)" stroke-width="1" opacity="1" d="M 31.5 150 L 35 150.5 L 31.5 151 L 31.5 150 Z " /><path fill="rgb(204,199,200)" stroke="rgb(204,199,200)" stroke-width="1" opacity="1" d="M 167.5 150 L 171 150.5 L 167.5 151 L 167.5 150 Z " /><path fill="rgb(204,199,200)" stroke="rgb(204,199,200)" stroke-width="1" opacity="1" d="M 45.5 156 L 45.5 159 L 43 157.5 L 45.5 156 Z " /><path fill="rgb(204,199,200)" stroke="rgb(204,199,200)" stroke-width="1" opacity="1" d="M 27.5 157 Q 29.8 157.8 29 161.5 L 28 161.5 L 27.5 157 Z " /><path fill="rgb(204,199,200)" stroke="rgb(204,199,200)" stroke-width="1" opacity="1" d="M 31.5 157 L 31 158.5 L 30.5 162 L 30 158.5 L 31.5 157 Z " /><path fill="rgb(204,199,200)" stroke="rgb(204,199,200)" stroke-width="1" opacity="1" d="M 37.5 157 L 36.5 161 L 35 160.5 L 34.5 164 L 34 160.5 L 37.5 157 Z " /><path fill="rgb(204,199,200)" stroke="rgb(204,199,200)" stroke-width="1" opacity="1" d="M 49.5 157 L 52 157.5 L 49.5 158 L 49.5 157 Z " /><path fill="rgb(204,199,200)" stroke="rgb(204,199,200)" stroke-width="1" opacity="1" d="M 57.5 157 L 60 157.5 L 57 158 L 56.5 164 L 56 158.5 L 57.5 157 Z " /><path fill="rgb(204,199,200)" stroke="rgb(204,199,200)" stroke-width="1" opacity="1" d="M 62.5 157 L 66 157.5 L 62.5 158 L 62.5 157 Z " /><path fill="rgb(204,199,200)" stroke="rgb(204,199,200)" stroke-width="1" opacity="1" d="M 74.5 157 L 79.5 158 L 83.5 157 L 85.5 157 L 90 157.5 L 84.5 159 L 80.5 158 L 78.5 158 L 73.5 159 L 74.5 157 Z " /><path fill="rgb(204,199,200)" stroke="rgb(204,199,200)" stroke-width="1" opacity="1" d="M 97.5 157 L 101 157.5 L 97.5 158 L 97.5 157 Z " /><path fill="rgb(204,199,200)" stroke="rgb(204,199,200)" stroke-width="1" opacity="1" d="M 105.5 157 L 106.5 159 L 105.5 157 Z " /><path fill="rgb(204,199,200)" stroke="rgb(204,199,200)" stroke-width="1" opacity="1" d="M 111.5 157 L 115 157.5 L 111.5 158 L 111.5 157 Z " /><path fill="rgb(204,199,200)" stroke="rgb(204,199,200)" stroke-width="1" opacity="1" d="M 119.5 157 L 123 158.5 L 121 159.5 L 121.5 158 Q 118.5 158.5 119.5 157 Z " /><path fill="rgb(204,199,200)" stroke="rgb(204,199,200)" stroke-width="1" opacity="1" d="M 125.5 157 L 129 158.5 Q 129.8 160.8 127.5 160 L 127.5 158 Q 124.5 158.5 125.5 157 Z " /><path fill="rgb(204,199,200)" stroke="rgb(204,199,200)" stroke-width="1" opacity="1" d="M 134.5 157 L 135.5 159 L 133 158.5 L 134.5 157 Z " /><path fill="rgb(204,199,200)" stroke="rgb(204,199,200)" stroke-width="1" opacity="1" d="M 142.5 157 L 141.5 161 L 140 160.5 L 139.5 164 L 139 160.5 L 142.5 157 Z " /><path fill="rgb(204,199,200)" stroke="rgb(204,199,200)" stroke-width="1" opacity="1" d="M 156.5 157 L 157.5 159 L 156.5 157 Z " /><path fill="rgb(204,199,200)" stroke="rgb(204,199,200)" stroke-width="1" opacity="1" d="M 160.5 157 L 162.5 158 L 165.5 157 L 165.5 158 L 162 159.5 L 162 161.5 L 161.5 164 L 160.5 157 Z " /><path fill="rgb(204,199,200)" stroke="rgb(204,199,200)" stroke-width="1" opacity="1" d="M 171.5 157 L 174 157.5 L 171 158 L 170.5 164 L 170 158.5 L 171.5 157 Z " /><path fill="rgb(204,199,200)" stroke="rgb(204,199,200)" stroke-width="1" opacity="1" d="M 177.5 157 Q 181.3 156.3 182 158.5 L 180.5 158 Q 174.4 156.2 177 163.5 L 173.5 163 L 172 162.5 L 173.5 162 Q 174.8 164.3 176 161.5 Q 175.3 157.8 177.5 157 Z " /><path fill="rgb(204,199,200)" stroke="rgb(204,199,200)" stroke-width="1" opacity="1" d="M 185.5 157 L 188 157.5 L 185 158 L 184.5 164 L 184 158.5 L 185.5 157 Z " /><path fill="rgb(204,199,200)" stroke="rgb(204,199,200)" stroke-width="1" opacity="1" d="M 191.5 157 L 191 158.5 Q 192.7 164.3 189 163 L 190 159.5 L 189.5 158 L 191.5 157 Z " /><path fill="rgb(204,199,200)" stroke="rgb(204,199,200)" stroke-width="1" opacity="1" d="M 198.5 157 L 200 157.5 L 197.5 159 L 198.5 157 Z " /><path fill="rgb(204,199,200)" stroke="rgb(204,199,200)" stroke-width="1" opacity="1" d="M 95.5 158 L 94.5 160 L 95.5 158 Z " /><path fill="rgb(204,199,200)" stroke="rgb(204,199,200)" stroke-width="1" opacity="1" d="M 53.5 159 L 54 161.5 L 53 161.5 L 53.5 159 Z " /><path fill="rgb(204,199,200)" stroke="rgb(204,199,200)" stroke-width="1" opacity="1" d="M 61.5 159 L 62 160.5 L 60 161.5 L 61.5 159 Z " /><path fill="rgb(204,199,200)" stroke="rgb(204,199,200)" stroke-width="1" opacity="1" d="M 116 159 L 118 159.5 L 117 161.5 L 120 162.5 Q 118.8 165.3 117.5 163 L 115.5 164 L 116 162.5 L 116 159 Z " /><path fill="rgb(204,199,200)" stroke="rgb(204,199,200)" stroke-width="1" opacity="1" d="M 149 159 L 151 159.5 L 148 161.5 L 149 159 Z " /><path fill="rgb(204,199,200)" stroke="rgb(204,199,200)" stroke-width="1" opacity="1" d="M 69.5 160 L 70 162 Q 72.7 163.1 72 160.5 L 73 160.5 L 71.5 163 L 69.5 162 L 67 163.5 L 69.5 160 Z " /><path fill="rgb(204,199,200)" stroke="rgb(204,199,200)" stroke-width="1" opacity="1" d="M 84.5 160 L 84.5 163 L 81 161.5 L 84.5 160 Z " /><path fill="rgb(204,199,200)" stroke="rgb(204,199,200)" stroke-width="1" opacity="1" d="M 166.5 160 L 168 162.5 L 167 162.5 L 166.5 160 Z " /><path fill="rgb(204,199,200)" stroke="rgb(204,199,200)" stroke-width="1" opacity="1" d="M 99.5 161 L 101 163.5 L 100 163.5 L 99.5 162 L 98.5 164 L 98 162.5 L 99.5 161 Z " /><path fill="rgb(204,199,200)" stroke="rgb(204,199,200)" stroke-width="1" opacity="1" d="M 164.5 161 L 165.5 163 L 164.5 161 Z " /><path fill="rgb(204,199,200)" stroke="rgb(204,199,200)" stroke-width="1" opacity="1" d="M 178 161 Q 181.7 159.5 181 162.5 L 181.5 164 L 178 163 L 178 161 Z " /><path fill="rgb(204,199,200)" stroke="rgb(204,199,200)" stroke-width="1" opacity="1" d="M 195 161 L 197 161.5 L 195 162.5 L 195 161 Z " /><path fill="rgb(204,199,200)" stroke="rgb(204,199,200)" stroke-width="1" opacity="1" d="M 49.5 162 L 48.5 164 L 49.5 162 Z " /><path fill="rgb(204,199,200)" stroke="rgb(204,199,200)" stroke-width="1" opacity="1" d="M 90.5 162 L 93 162.5 Q 90.9 165.8 90.5 162 Z " /><path fill="rgb(255,251,252)" stroke="rgb(255,251,252)" stroke-width="1" opacity="1" d="M 87.5 52 L 93 52.5 L 87.5 53 L 87.5 52 Z " /><path fill="rgb(255,251,252)" stroke="rgb(255,251,252)" stroke-width="1" opacity="1" d="M 37.5 54 L 36.5 56 L 37.5 54 Z " /><path fill="rgb(255,251,252)" stroke="rgb(255,251,252)" stroke-width="1" opacity="1" d="M 55.5 54 L 54.5 56 L 55.5 54 Z " /><path fill="rgb(255,251,252)" stroke="rgb(255,251,252)" stroke-width="1" opacity="1" d="M 56.5 56 L 57.5 58 L 56.5 56 Z " /><path fill="rgb(255,251,252)" stroke="rgb(255,251,252)" stroke-width="1" opacity="1" d="M 33.5 58 L 32 60.5 L 31.5 62 L 31 60.5 L 33.5 58 Z " /><path fill="rgb(255,251,252)" stroke="rgb(255,251,252)" stroke-width="1" opacity="1" d="M 104.5 59 L 106 61.5 L 104 60.5 L 104.5 59 Z " /><path fill="rgb(255,251,252)" stroke="rgb(255,251,252)" stroke-width="1" opacity="1" d="M 69.5 63 L 72 63.5 L 70.5 65 L 68 64.5 L 69.5 63 Z " /><path fill="rgb(255,251,252)" stroke="rgb(255,251,252)" stroke-width="1" opacity="1" d="M 29.5 66 L 30 68.5 L 29 68.5 L 29.5 66 Z " /><path fill="rgb(255,251,252)" stroke="rgb(255,251,252)" stroke-width="1" opacity="1" d="M 67.5 66 L 68.5 68 L 66 67.5 L 67.5 66 Z " /><path fill="rgb(255,251,252)" stroke="rgb(255,251,252)" stroke-width="1" opacity="1" d="M 29.5 74 L 30 76.5 L 29 76.5 L 29.5 74 Z " /><path fill="rgb(255,251,252)" stroke="rgb(255,251,252)" stroke-width="1" opacity="1" d="M 105.5 74 L 106 76.5 L 105 76.5 L 105.5 74 Z " /><path fill="rgb(255,251,252)" stroke="rgb(255,251,252)" stroke-width="1" opacity="1" d="M 28.5 79 L 31 80.5 L 29 81.5 L 28.5 79 Z " /><path fill="rgb(255,251,252)" stroke="rgb(255,251,252)" stroke-width="1" opacity="1" d="M 104.5 79 L 106 81.5 L 104 80.5 L 104.5 79 Z " /><path fill="rgb(255,251,252)" stroke="rgb(255,251,252)" stroke-width="1" opacity="1" d="M 103.5 85 L 102.5 87 L 103.5 85 Z " /><path fill="rgb(255,251,252)" stroke="rgb(255,251,252)" stroke-width="1" opacity="1" d="M 33.5 88 L 35 90.5 L 33 89.5 L 33.5 88 Z " /><path fill="rgb(255,251,252)" stroke="rgb(255,251,252)" stroke-width="1" opacity="1" d="M 101.5 88 L 102 89.5 L 100 90.5 L 101.5 88 Z " /><path fill="rgb(255,251,252)" stroke="rgb(255,251,252)" stroke-width="1" opacity="1" d="M 36.5 94 L 37.5 96 L 36.5 94 Z " /><path fill="rgb(255,251,252)" stroke="rgb(255,251,252)" stroke-width="1" opacity="1" d="M 98.5 94 L 97.5 96 L 98.5 94 Z " /><path fill="rgb(255,251,252)" stroke="rgb(255,251,252)" stroke-width="1" opacity="1" d="M 96.5 97 L 96.5 100 L 94 99.5 L 96.5 97 Z " /><path fill="rgb(255,251,252)" stroke="rgb(255,251,252)" stroke-width="1" opacity="1" d="M 39.5 98 L 41.5 101 L 39.5 98 Z " /><path fill="rgb(255,251,252)" stroke="rgb(255,251,252)" stroke-width="1" opacity="1" d="M 89.5 105 L 87.5 108 L 89.5 105 Z " /><path fill="rgb(255,251,252)" stroke="rgb(255,251,252)" stroke-width="1" opacity="1" d="M 47.5 107 L 48.5 109 L 47.5 107 Z " /><path fill="rgb(255,251,252)" stroke="rgb(255,251,252)" stroke-width="1" opacity="1" d="M 85.5 109 L 86.5 111 L 85.5 109 Z " /><path fill="rgb(255,251,252)" stroke="rgb(255,251,252)" stroke-width="1" opacity="1" d="M 52.5 111 L 55.5 115 L 52.5 111 Z " /><path fill="rgb(255,251,252)" stroke="rgb(255,251,252)" stroke-width="1" opacity="1" d="M 83.5 111 L 84.5 113 L 83.5 112 L 81 113.5 L 83.5 111 Z " /><path fill="rgb(255,251,252)" stroke="rgb(255,251,252)" stroke-width="1" opacity="1" d="M 79.5 114 L 78.5 116 L 79.5 114 Z " /><path fill="rgb(255,251,252)" stroke="rgb(255,251,252)" stroke-width="1" opacity="1" d="M 59.5 117 L 60.5 119 L 59.5 117 Z " /><path fill="rgb(255,251,252)" stroke="rgb(255,251,252)" stroke-width="1" opacity="1" d="M 73.5 119 L 72.5 121 L 73.5 119 Z " /><path fill="rgb(255,251,252)" stroke="rgb(255,251,252)" stroke-width="1" opacity="1" d="M 63.5 120 L 64.5 122 L 63.5 120 Z " /><path fill="rgb(255,251,252)" stroke="rgb(255,251,252)" stroke-width="1" opacity="1" d="M 69.5 122 L 71 122.5 L 67.5 124 L 67.5 123 L 69.5 122 Z " /></svg>